<svg width="4798" height="5087" viewBox="0 0 4798 5087" fill="none" xmlns="http://www.w3.org/2000/svg">
<path d="M2236.58 4022C2339.49 4022.08 2442.4 4022.15 2547.29 4024C2550.07 4033.68 2551 4041.59 2551.68 4049.52C2556.9 4110.7 2601.83 4171.01 2670.17 4187.1C2688.23 4191.36 2706.33 4195.95 2725.29 4191.01C2739.39 4187.33 2753.81 4184.86 2767.56 4183.08C2752.95 4201.13 2739.07 4218.13 2724.72 4234.71C2707.34 4254.79 2691.7 4276.48 2670.84 4293.4C2663.66 4299.22 2660.51 4307.04 2659.32 4315.37C2650.56 4307.99 2643.14 4301.31 2635.48 4294.94C2604.92 4269.55 2569.49 4254.72 2530.31 4250.85C2471.45 4245.03 2419.54 4262.73 2377.1 4304.08C2327.24 4352.65 2308.16 4412.59 2321.53 4480.6C2332.8 4537.92 2363.44 4583.71 2415.29 4613.29C2453.6 4635.14 2495.24 4643.2 2538.49 4636.92C2593.84 4628.89 2638.14 4600.2 2670.78 4555.27C2698.23 4517.47 2709.69 4474.7 2704.99 4427.44C2701.26 4389.97 2689.15 4356.34 2666.56 4326.35C2664.19 4323.21 2662.41 4319.63 2661.88 4316.77C2667.94 4316.67 2672.73 4316.77 2677 4315.35C2692.78 4310.12 2708.38 4304.33 2724.07 4298.85C2743.71 4291.99 2761.73 4282.2 2778.27 4269.56C2789.37 4261.08 2800.95 4253.21 2812.01 4244.67C2824.11 4235.33 2836.27 4225.99 2847.7 4215.85C2874.6 4191.97 2902.56 4169.46 2931.18 4147.69C2964.54 4122.32 2997.52 4096.43 3030.41 4070.44C3048.64 4056.04 3066.35 4040.99 3085.35 4027.34C3100.96 4034.07 3116.17 4034.29 3131.49 4034.12C3153.46 4033.88 3175.43 4034.05 3197.41 4034.05C3212.72 4034.04 3228.1 4033.14 3243.32 4034.31C3257.19 4035.37 3270.49 4026.68 3284.44 4032.63C3285.35 4033.02 3287.21 4032.27 3288.08 4031.46C3296.52 4023.61 3306.9 4026.64 3317.46 4027.27C3321.84 4034.72 3325.22 4041.22 3329.06 4047.43C3336.39 4059.3 3342.42 4072.46 3351.75 4082.52C3375.06 4107.65 3394 4137.48 3425.48 4154.24C3438.5 4168.76 3455.22 4178.6 3471.38 4191.02C3473.44 4192.8 3474.84 4193.54 3476.23 4194.16C3476.21 4194.04 3476 4194.14 3476.21 4195.49C3482.45 4203.95 3488.4 4211.12 3494.54 4218.13C3526.58 4254.73 3559.01 4290.98 3590.66 4327.91C3649.19 4396.2 3707.26 4464.87 3769.29 4530.1C3793.14 4555.17 3815.33 4581.86 3837.8 4608.21C3882.76 4660.93 3926.54 4714.67 3974.94 4764.37C3995.39 4785.37 4015.98 4806.31 4035.29 4828.34C4089.73 4890.48 4143.32 4953.35 4197.79 5015.46C4207.68 5026.74 4213.07 5038.55 4212.48 5053.3C4208.12 5068.81 4195.91 5072.84 4181.9 5073.95C4176.61 5074.37 4171.25 5074.03 4165.92 5074.07C4161.25 5074.11 4156.38 5073.32 4151.96 5074.4C4121.68 5081.78 4090.95 5076.42 4060.48 5078.03C4010.19 5069.91 3959.53 5074.32 3909.07 5074.3C3000.91 5073.98 2092.75 5074.06 1184.58 5074.1C1172.01 5074.1 1159.39 5073.04 1147 5077.29C1142.18 5078.94 1136.44 5078.02 1131.12 5078.03C1100.47 5078.09 1069.82 5077.93 1039.17 5078.15C1023.95 5078.25 1008.61 5076.51 993.623 5081.56C989.407 5082.98 984.371 5081.96 979.711 5082.07C969.118 5082.32 958.725 5082.57 948.092 5084.88C937.272 5087.23 925.132 5087.6 914.391 5085.18C900.448 5082.05 886.7 5082.35 872.794 5082.07C858.216 5081.78 843.83 5081.5 829.215 5078.89C814.349 5076.24 798.671 5078.17 783.349 5078.06C774.115 5078 764.88 5077.88 754.575 5077.78C753.65 5072.97 752.938 5069.26 753.004 5062.78C775.953 5034.3 798.146 5008.6 820.287 4982.86C891.052 4900.59 961.763 4818.27 1032.56 4736.03C1093.81 4664.89 1155.21 4593.88 1216.4 4522.69C1230.26 4506.57 1243.55 4489.94 1258.27 4472.85C1278.31 4464.06 1297.08 4455.71 1316.12 4448.01C1325.08 4444.38 1331.86 4438.84 1337.59 4431.12C1353.93 4409.1 1366.24 4384.95 1376.47 4359.67C1399.15 4303.6 1413.28 4244.88 1430.95 4186.31C1439.26 4183.99 1443.46 4189.28 1448.15 4192.46C1485.48 4217.77 1522.82 4243.1 1559.77 4268.96C1578.23 4281.87 1595.77 4296.08 1613.97 4309.36C1625.2 4317.56 1636.97 4325.02 1648.37 4333C1654.6 4337.36 1661.53 4339.06 1668.44 4340.66C1665.02 4345.46 1662.27 4349.19 1659.19 4352.63C1616.27 4400.57 1601.57 4456.55 1613.67 4519.15C1621.56 4559.97 1641.94 4594.22 1671.26 4624.24C1706.75 4660.56 1783.49 4687.84 1844.88 4672.12C1913.01 4654.67 1959.96 4613.53 1986.43 4548.7C1995.09 4527.51 1998.71 4504.93 1998.86 4482.44C1998.97 4465.42 1995.66 4447.98 1991.35 4431.38C1979.34 4385.14 1953.19 4348.13 1913.32 4321.72C1880.45 4299.95 1844.39 4288.63 1804.23 4288.89C1764.38 4289.15 1727.99 4298.5 1694.89 4320.67C1691.59 4322.88 1687.93 4324.55 1684.42 4324.89C1685.39 4314.77 1681.73 4307.7 1676.83 4301.3C1670.8 4293.41 1664.41 4285.77 1657.94 4278.23C1630.74 4246.54 1603.15 4215.18 1576.34 4183.18C1564.47 4169.01 1554.11 4153.58 1544.37 4138.1C1548.2 4135.32 1551.02 4133.44 1553.19 4130.97C1561.06 4122.03 1568.73 4112.92 1576.44 4103.84C1590.57 4087.21 1604.74 4070.61 1618.77 4053.89C1633.82 4035.96 1650.2 4020.99 1676.33 4026.06C1756.82 4026 1837.3 4025.93 1918.38 4027.55C1919.23 4031.88 1919.53 4034.52 1919.74 4037.17C1922.95 4078.18 1940.49 4112.75 1969.91 4140.52C2000.07 4168.98 2036.75 4182.92 2078.71 4182.28C2131.72 4181.47 2173.19 4158.43 2204.63 4116.76C2225.65 4088.89 2235.58 4056.84 2236.58 4022Z" fill="#F2F2F2"/>
<path d="M1200.31 1427.76C1227.46 1445.71 1254.18 1464.36 1281.88 1481.4C1310.72 1499.13 1340.12 1516.05 1369.98 1532C1413.32 1555.16 1457.34 1577.06 1500.96 1599.7C1508.57 1603.65 1515.66 1608.62 1524.72 1614.66C1527.39 1616.97 1528.47 1617.51 1529.66 1617.82C1529.66 1617.82 1529.02 1617.7 1529.51 1618.73C1541.09 1631.24 1552.08 1642.81 1563.29 1654.17C1573.29 1664.29 1580.1 1676.5 1585.11 1689.47C1593.73 1711.78 1602.24 1734.2 1609.12 1757.08C1624.22 1807.28 1639.04 1857.6 1652.54 1908.25C1663.63 1949.85 1676.59 1991.06 1683.03 2033.83C1687.47 2063.28 1692.28 2092.68 1697.05 2122.09C1700.33 2142.34 1703.95 2162.54 1707.17 2182.81C1709.36 2196.54 1712.53 2210.3 1712.81 2224.1C1713.53 2259.38 1712.89 2294.7 1712.76 2330C1712.76 2331.99 1712.98 2334.12 1712.37 2335.95C1707.88 2349.56 1709.42 2363.63 1708.99 2377.54C1708.76 2384.86 1710.06 2392.56 1708.23 2399.43C1704.21 2414.57 1705.53 2429.84 1704.91 2445.07C1704.69 2450.39 1705.59 2456.04 1704.09 2460.96C1700.48 2472.73 1701.37 2484.68 1700.99 2496.61C1700.78 2503.26 1701.86 2510.27 1700.11 2516.49C1696.62 2528.97 1697.38 2541.55 1696.93 2554.14C1696.74 2559.45 1697.51 2565.11 1695.96 2570.01C1692.86 2579.82 1693.56 2589.74 1692.98 2599.67C1691.67 2622.19 1690.07 2644.68 1688.58 2667.18C1688.54 2667.85 1688.48 2668.52 1688.3 2669.16C1682.04 2691.12 1685.7 2714.01 1681.64 2736.37C1677.76 2757.77 1678.18 2779.95 1676.67 2801.79C1676.53 2803.76 1675.98 2805.71 1675.75 2807.69C1673.53 2826.75 1671 2845.78 1669.22 2864.88C1667.33 2885.34 1666.16 2905.88 1664.66 2926.38C1664.56 2927.7 1664.29 2929.01 1664.13 2930.34C1661.77 2950.71 1659.21 2971.06 1657.1 2991.46C1655.26 3009.26 1655.3 3027.38 1651.9 3044.85C1649.45 3057.43 1649.82 3069.97 1648.2 3082.46C1645.65 3102.14 1643.23 3121.84 1641.11 3141.57C1639.26 3158.7 1638.63 3175.99 1636.17 3193.02C1632.09 3221.27 1628.17 3249.48 1627.54 3279.2C1622.92 3308.69 1619.68 3337.12 1615.89 3365.48C1609.97 3409.68 1604.33 3453.94 1597.38 3497.98C1587.92 3557.8 1578.04 3617.56 1567.06 3677.11C1552.93 3753.74 1533.23 3829.11 1511.93 3904.02C1499.19 3948.82 1485.61 3993.38 1471.26 4037.37C1467.8 4034.32 1465.07 4032.23 1463.21 4029.53C1450 4010.38 1437.34 3990.83 1423.79 3971.92C1395.43 3932.35 1370.89 3890.49 1348.04 3847.6C1330.19 3814.1 1312.71 3780.4 1295.59 3746.52C1284.79 3725.14 1275.11 3703.2 1264.65 3681.64C1237.62 3625.9 1210.84 3570.04 1183.19 3514.6C1159.68 3467.46 1140.53 3418.55 1122.82 3369.07C1106.91 3324.61 1090.07 3280.52 1072.54 3236.68C1057.73 3199.64 1042.63 3162.65 1029.62 3124.97C1012.48 3075.35 999.87 3024.42 987.703 2973.31C972.788 2910.66 955.631 2848.54 938.87 2786.34C928.326 2747.21 915.984 2708.56 905.766 2669.35C886.34 2594.81 868.103 2519.96 848.867 2445.38C841.073 2415.15 832.727 2385.02 823.269 2355.28C807.106 2304.46 785.291 2255.88 761.886 2208.04C743.728 2170.93 724.692 2134.25 706.628 2097.09C689.414 2061.68 668.735 2028.36 647.549 1995.28C629.582 1967.23 609.029 1941.11 587.927 1915.46C574.924 1899.66 559.197 1886.09 550.708 1866.78C549.47 1863.97 546.445 1861.57 543.699 1859.85C535.238 1854.58 526.881 1848.9 517.824 1844.85C479.833 1827.87 440.399 1816.82 398.283 1817.87C392.953 1818.01 387.617 1817.92 382.284 1817.9C353.449 1817.78 325.562 1823.58 298.058 1831.57C268.488 1840.16 240.476 1852.3 214.668 1869.23C192.424 1883.82 170.795 1899.2 151.396 1917.57C129.023 1938.76 110.563 1963.04 93.5889 1988.6C89.5933 1994.62 84.9237 2000.18 80.564 2005.96C78.8707 1998.67 83.567 1993.23 86.3427 1987.43C105.977 1946.44 130.758 1908.7 159.407 1873.47C188.424 1837.78 219.684 1804.17 254.064 1773.62C305.782 1727.67 357.317 1681.48 410.066 1636.73C467.976 1587.61 530.903 1545.15 594.024 1503.07C607.234 1494.26 621.114 1486.49 631.903 1474.15C636.41 1468.99 644.308 1466.79 652.002 1464.58C649.581 1477.72 650.389 1489.61 653.948 1501.12C660.83 1523.39 668.749 1545.26 681.634 1564.98C714.295 1614.97 758.513 1650.87 813.59 1673.59C847.544 1687.6 882.7 1697.14 919.03 1702.66C952.585 1707.76 985.877 1712.47 1020.03 1706.18C1059.99 1698.81 1099.51 1690.04 1137.48 1675.51C1148.43 1671.32 1159.49 1666.35 1167.87 1658.92C1169.47 1647.8 1171.86 1637.98 1172.11 1628.11C1172.9 1596.16 1176.99 1564.55 1180.16 1532.82C1183 1504.34 1186.92 1476.11 1193.08 1448.2C1194.63 1441.2 1197.85 1434.57 1200.31 1427.76Z" fill="#1F999C"/>
<path d="M80.6995 2005.96C84.9239 2000.18 89.5935 1994.62 93.5891 1988.6C110.563 1963.04 129.023 1938.76 151.396 1917.57C170.795 1899.2 192.424 1883.82 214.669 1869.23C240.476 1852.3 268.488 1840.16 298.059 1831.57C325.562 1823.58 353.449 1817.78 382.284 1817.9C387.617 1817.92 392.953 1818.01 398.283 1817.87C440.399 1816.82 479.833 1827.87 517.824 1844.85C526.881 1848.9 535.238 1854.58 543.699 1859.85C546.445 1861.57 549.471 1863.97 550.708 1866.78C559.197 1886.09 574.924 1899.66 587.927 1915.46C609.029 1941.11 629.582 1967.23 647.549 1995.28C668.735 2028.36 689.414 2061.68 706.628 2097.09C724.693 2134.25 743.728 2170.93 761.886 2208.04C785.291 2255.88 807.106 2304.46 823.269 2355.28C832.727 2385.02 841.073 2415.15 848.867 2445.38C868.103 2519.96 886.34 2594.81 905.766 2669.35C915.984 2708.56 928.327 2747.21 938.87 2786.34C955.632 2848.54 972.788 2910.66 987.704 2973.31C999.87 3024.42 1012.48 3075.35 1029.62 3124.97C1042.63 3162.65 1057.73 3199.64 1072.54 3236.68C1090.07 3280.52 1106.91 3324.61 1122.82 3369.07C1140.53 3418.55 1159.68 3467.46 1183.19 3514.6C1210.84 3570.04 1237.62 3625.9 1264.65 3681.64C1275.11 3703.2 1284.79 3725.14 1295.59 3746.52C1312.71 3780.4 1330.19 3814.1 1348.04 3847.6C1370.89 3890.49 1395.43 3932.35 1423.79 3971.92C1437.34 3990.83 1450 4010.38 1463.21 4029.53C1465.07 4032.23 1467.8 4034.32 1471.63 4038.74C1475.28 4044.85 1476.99 4049.23 1479.64 4052.93C1494.65 4073.94 1509.76 4094.89 1525.11 4115.65C1530.98 4123.6 1537.58 4131.01 1543.85 4138.67C1554.9 4153.52 1565.26 4168.95 1577.12 4183.11C1603.94 4215.12 1631.53 4246.48 1658.73 4278.16C1665.2 4285.71 1671.58 4293.34 1677.62 4301.23C1682.52 4307.63 1686.18 4314.7 1684.48 4325.88C1679.09 4332.14 1674.41 4335.77 1669.73 4339.39C1662.32 4339 1655.39 4337.29 1649.15 4332.93C1637.75 4324.96 1625.99 4317.49 1614.75 4309.29C1596.55 4296.01 1579.01 4281.8 1560.56 4268.89C1523.6 4243.03 1486.27 4217.71 1448.93 4192.39C1444.25 4189.21 1440.05 4183.93 1431.27 4184.84C1428.03 4177.52 1423.1 4174.08 1418.14 4170.62C1406.7 4162.63 1395.24 4154.67 1383.92 4146.52C1335.39 4111.58 1286.86 4076.62 1238.42 4041.56C1213.67 4023.64 1188.94 4005.7 1164.5 3987.37C1142.19 3970.64 1120.15 3953.54 1098.23 3936.29C1076.84 3919.45 1055.57 3902.45 1034.58 3885.12C1007.44 3862.71 980.609 3839.92 953.682 3817.25C921.684 3790.31 889.205 3763.91 857.91 3736.17C831.532 3712.79 806.107 3688.29 781.096 3663.44C762.237 3644.71 744.697 3624.64 726.573 3605.16C725.666 3604.19 724.779 3603.19 723.897 3602.2C705.409 3581.3 686.782 3560.52 668.478 3539.46C650.177 3518.4 631.835 3497.36 614.172 3475.78C591.467 3448.03 572.086 3417.75 548.497 3390.58C528.933 3368.05 511.769 3343.45 492.807 3320.37C464.924 3286.43 440.022 3250.33 414.997 3214.34C362.581 3138.96 313 3061.76 268.552 2981.35C247.635 2943.52 226.372 2905.86 206.148 2867.65C194.331 2845.33 184.632 2821.89 173.315 2799.28C151.56 2755.82 131.91 2711.43 113.146 2666.62C100.306 2635.96 86.587 2605.66 73.9454 2574.92C61.304 2544.18 49.7225 2513.02 40.0174 2481.18C38.324 2475.63 35.0198 2470.56 32.4595 2465.27C28.0111 2444.52 23.8588 2423.7 19.0522 2403.03C9.02118 2359.89 6.68647 2316.12 9.99946 2272.23C12.0941 2244.48 16.7091 2216.87 21.3118 2189.38C26.9083 2155.96 34.3757 2122.9 45.4141 2090.77C47.3569 2085.11 49.3751 2079.48 51.472 2073.88C58.6903 2054.61 65.9587 2035.35 75.3757 2014.52C78.6439 2010.53 79.7445 2008.12 80.8452 2005.7C80.8452 2005.7 80.8349 2005.97 80.6995 2005.96Z" fill="#51A3DD"/>
<path d="M2696.71 1226.41C2663.24 1183.19 2630.23 1139.68 2615.73 1085.59C2611.4 1069.42 2604.77 1054.6 2595.6 1040.44C2577.09 1011.83 2568.47 980.094 2568.08 945.87C2567.5 895.857 2576.97 847.963 2596.16 801.875C2615.93 754.402 2647.93 718.551 2695.27 697.183C2697.66 696.104 2699.83 694.546 2701.42 693.616C2702.49 675.765 2702.76 658.524 2704.67 641.467C2716.55 535.526 2768.31 455.515 2860.97 402.203C2887.59 386.887 2914.86 373.368 2944.65 365.089C2972.06 357.468 2999.79 355.625 3027.78 359.206C3045.56 361.48 3063.11 365.594 3080.82 368.509C3085.21 369.232 3090.12 369.481 3094.3 368.255C3105.13 365.075 3115.84 361.343 3126.31 357.138C3170.46 339.424 3216.55 329.37 3263.38 322.404C3287.74 318.781 3312.28 316.428 3336.67 312.977C3383.44 306.359 3429.71 309.923 3475.7 319.263C3550.03 334.358 3619.33 362.22 3685.71 398.904C3752.42 435.764 3806.37 485.974 3851.36 546.659C3874.37 577.703 3896.27 609.528 3915.38 643.153C3938.17 683.274 3955.93 725.36 3965.88 770.701C3975.31 813.734 3974.6 856.578 3966.99 899.662C3956.22 960.666 3933.42 1017.22 3903.61 1071.12C3874.79 1123.21 3841.23 1171.86 3798.68 1213.94C3783.53 1228.92 3769.07 1244.61 3754.43 1260.11C3751.85 1262.84 3749.96 1266.22 3746.64 1270.85C3753.53 1271.85 3758.62 1273.14 3763.74 1273.24C3785.05 1273.63 3806.37 1273.74 3827.69 1273.8C3855.67 1273.88 3883.67 1273.14 3911.63 1274.02C3939.84 1274.9 3966.98 1281.52 3992.46 1294C4027.35 1311.09 4050.68 1337.96 4059.53 1376.15C4064.56 1397.86 4063.5 1419.92 4059.2 1441.66C4053.46 1470.68 4041.69 1497.45 4026.94 1522.94C4011.23 1550.09 3993.24 1575.66 3973.45 1599.99C3965.07 1610.28 3957.02 1620.85 3949.17 1633.71C3950.64 1636.84 3951.77 1637.56 3952.89 1638.27C3952.89 1638.27 3952.99 1638.03 3952.84 1639.57C3965.65 1667.91 3967.38 1695.98 3962.72 1724.95C3958.79 1749.4 3951.81 1772.94 3942.81 1795.92C3936.51 1812 3929.7 1827.88 3923.17 1843.74C3924.05 1845.84 3924.51 1847.9 3925.64 1849.47C3940.23 1869.79 3945 1892.84 3945.38 1917.36C3945.72 1938.87 3942.6 1959.78 3937.14 1980.5C3936.05 1984.61 3932.48 1989 3936.46 1993.7C3936.62 1993.82 3936.89 1993.54 3935.73 1993.14C3934.09 1994.23 3933.61 1995.72 3932.25 1998.4C3920.74 2027.67 3907.71 2054.44 3888.58 2077.9C3857.73 2115.74 3819.34 2137.19 3768 2132.21C3742.43 2125.02 3721.63 2112.22 3703.88 2094.63C3669.72 2060.77 3648.61 2019.82 3642.5 1972.19C3640.11 1953.6 3633.76 1937.69 3623.53 1922.66C3607.77 1899.51 3594.71 1874.89 3583.99 1849.03C3576.37 1830.64 3568.83 1812.22 3561.26 1792.21C3560.54 1788.05 3559.75 1785.5 3559.1 1782.92C3551.44 1752.35 3547.22 1721.6 3552.59 1690.03C3555.86 1670.82 3561.78 1652.62 3570 1635.03C3583.63 1605.82 3602.71 1580.22 3622.3 1554.89C3628.78 1546.5 3634.74 1537.58 3639.87 1528.31C3643.99 1520.86 3642.29 1515.89 3635.3 1511.22C3628.67 1506.79 3621.79 1502.62 3614.67 1499.05C3602.18 1492.77 3589.47 1486.91 3576.76 1481.1C3522.5 1456.28 3479.4 1418.92 3448.8 1367.47C3445.76 1362.35 3442.65 1357.27 3439.79 1352.54C3434.78 1351.37 3430.39 1350.34 3425.02 1349.09C3429.82 1339.97 3434.46 1331.96 3438.35 1323.61C3459.48 1278.2 3475.63 1231.05 3487.38 1182.36C3494.23 1153.97 3494.1 1125.57 3487.85 1097.22C3483.66 1078.18 3476.24 1060.44 3464.23 1044.8C3440.06 1013.33 3399.8 1001.54 3364.3 1015.91C3349.23 1022.01 3337.1 1032.26 3325.57 1043.59C3306.06 1062.76 3298.28 1085.72 3301.44 1112.58C3302.21 1119.16 3303.28 1125.82 3305.21 1132.13C3311.04 1151.21 3316.49 1170.45 3326.05 1188.18C3330.79 1196.96 3334.94 1206.06 3339.4 1215C3341.15 1218.5 3340.74 1221.31 3336.07 1222.36C3315.43 1206.24 3294.63 1193.43 3270.92 1185.4C3254.57 1179.86 3238.61 1173.12 3222.65 1166.49C3202.36 1158.06 3181.98 1149.77 3162.15 1140.36C3140.37 1130.03 3117.5 1127.48 3094.01 1128.62C3081.41 1129.23 3068.85 1131.04 3056.32 1132.69C3033.86 1135.66 3011.56 1139.07 2988.79 1134.34C2970.38 1130.51 2953.01 1124.06 2935.88 1116.64C2931.23 1114.62 2926.53 1112.72 2921.84 1110.76C2920.92 1113.07 2920.23 1114.19 2920.04 1115.38C2917.44 1132.06 2913.13 1136.56 2897.81 1137.94C2893.18 1138.35 2888.46 1138.5 2883.84 1138.12C2867.92 1136.84 2851.91 1135.99 2836.13 1133.69C2795.5 1127.76 2756.83 1116.22 2723.11 1091.55C2720.67 1089.76 2717.61 1088.84 2714.85 1087.52C2713.98 1089.3 2713.54 1089.84 2713.46 1090.43C2709.15 1124.3 2708.35 1158.07 2714.78 1191.85C2718.35 1210.56 2713.7 1218.54 2696.71 1226.41Z" fill="#010101"/>
<path d="M3936.31 1993.58C3932.48 1989 3936.05 1984.61 3937.14 1980.5C3942.6 1959.78 3945.73 1938.87 3945.38 1917.36C3945 1892.84 3940.23 1869.79 3925.64 1849.47C3924.51 1847.9 3924.05 1845.84 3923.17 1843.74C3929.7 1827.88 3936.51 1812 3942.81 1795.92C3951.81 1772.94 3958.79 1749.4 3962.72 1724.95C3967.38 1695.98 3965.65 1667.91 3952.71 1639.6C3960.13 1637.27 3965.13 1642.2 3970.61 1645.76C3991.33 1659.22 4010.06 1675.28 4028.24 1691.86C4045.47 1707.56 4061.98 1724.1 4078.18 1740.87C4106.91 1770.58 4132.81 1802.68 4157.12 1836.11C4201.19 1896.69 4237.36 1961.84 4268.38 2029.83C4281.9 2059.47 4293.2 2090.14 4304.98 2120.54C4318.21 2154.67 4330.67 2189.09 4343.79 2223.26C4368.18 2286.8 4387.2 2351.74 4397.76 2419.12C4402.5 2449.34 4406.79 2479.54 4409.73 2510C4412.99 2543.77 4416.01 2577.5 4417.62 2611.4C4418.84 2637.26 4422.08 2663.03 4424.23 2688.86C4426 2710.06 4427.31 2731.31 4429.14 2752.51C4430.22 2765.08 4431.52 2777.67 4433.42 2790.14C4445.62 2870.21 4466.59 2947.67 4504.16 3019.89C4525.11 3060.15 4549.95 3098.03 4578.33 3133.43C4616.28 3180.78 4650.4 3230.74 4683.12 3281.79C4698.19 3305.29 4715.05 3327.65 4731.23 3350.43C4738.16 3360.19 4745.7 3369.52 4752.4 3379.44C4754.88 3383.12 4757.1 3387.92 4757.06 3392.2C4756.95 3406.12 4755.81 3420.03 4754.91 3433.94C4754.65 3437.88 4753.87 3441.8 4752.26 3448.46C4743.85 3479.16 4729.76 3504.14 4715 3528.51C4679.71 3586.73 4637.56 3639.87 4590.85 3689.29C4567.98 3713.48 4541.32 3733.54 4515.42 3754.4C4470.32 3790.72 4423.97 3825.29 4375.67 3857.18C4331.26 3886.49 4286.7 3915.59 4241.58 3943.79C4206.63 3965.63 4170.86 3986.19 4135.17 4006.81C4115.01 4018.46 4094.03 4028.68 4073.84 4040.26C4037.98 4060.84 4000.5 4078.13 3962.4 4093.86C3910.17 4115.42 3857.38 4135.62 3804.59 4155.78C3782.27 4164.31 3759.28 4171.09 3736.69 4178.94C3707.08 4189.23 3676.27 4194.59 3645.7 4200.71C3624.92 4204.88 3603.76 4207.74 3582.62 4209.31C3555.93 4211.29 3529.7 4206.55 3503.84 4199.9C3494.91 4197.6 3485.81 4196 3476.79 4194.08C3476.79 4194.08 3477 4193.98 3476.52 4192.96C3474.53 4191.26 3473.02 4190.58 3471.51 4189.9C3456.01 4178.53 3439.29 4168.7 3426.26 4154.18C3394.78 4137.41 3375.84 4107.59 3352.54 4082.45C3343.21 4072.39 3337.17 4059.24 3329.85 4047.37C3326.01 4041.15 3322.63 4034.66 3318.02 4025.72C3303.12 3990.73 3288.93 3958.44 3278.24 3924.74C3272.83 3907.68 3266.97 3890.77 3261.95 3872.65C3309.66 3834.31 3354.51 3794.52 3398.42 3753.7C3433.06 3721.49 3466.75 3688.25 3501.12 3655.75C3538.4 3620.5 3575.42 3584.94 3613.59 3550.69C3655.32 3513.26 3695.64 3474.55 3732.08 3431.92C3771.49 3385.81 3811.7 3340.41 3855.12 3298.03C3907.22 3247.17 3954.59 3192.28 3998.63 3134.37C4037.77 3082.89 4076.07 3030.92 4107.5 2974.19C4135.91 2922.91 4164.67 2871.82 4193.56 2820.8C4206.7 2797.6 4220.06 2774.54 4229.81 2749.64C4263.84 2662.75 4292.73 2574.18 4317.62 2484.26C4334.79 2422.22 4344.39 2359.37 4341.42 2294.81C4340.25 2269.4 4336.38 2244.49 4329.95 2219.97C4315.19 2163.69 4289.31 2113.22 4251.42 2068.82C4221.56 2033.84 4186.63 2005.78 4145.17 1985.75C4123.47 1975.28 4101.08 1967.23 4077.57 1961.73C4067.63 1959.41 4057.92 1957.9 4047.99 1959.02C4037.43 1960.21 4026.94 1962.24 4016.54 1964.45C3994.9 1969.06 3974.74 1977.81 3954.72 1986.98C3948.81 1989.69 3943.63 1994.69 3936.31 1993.58Z" fill="#F8C37F"/>
<path d="M19.8422 3823.5C33.3315 3828.66 38.3996 3885.68 48.7751 3896.01C78.5334 3925.63 108.438 3955.12 137.747 3985.19C170.833 4019.14 207.379 4049.13 243.414 4079.74C264.729 4097.84 285.749 4116.29 307.027 4134.44C340.964 4163.39 374.926 4192.3 409.034 4221.05C429.907 4238.64 450.953 4256.02 472.138 4273.24C500.62 4296.38 531.347 4316.4 562.327 4335.9C642.931 4386.63 723.735 4437.05 804.949 4486.79C833.882 4504.51 863.965 4520.49 896.121 4531.93C918.993 4540.08 942.071 4543.3 966.671 4539.4C986.477 4536.25 1005.93 4532.24 1025.09 4526.68C1080.72 4510.53 1137.12 4497.62 1193.83 4485.95C1214.01 4481.8 1234.2 4477.64 1256.13 4473.48C1244.33 4489.88 1231.05 4506.5 1217.19 4522.63C1156 4593.81 1094.6 4664.82 1033.35 4735.96C962.549 4818.21 891.839 4900.53 821.073 4982.8C798.932 5008.54 776.739 5034.24 753.794 5061.04C745.03 5062 737.041 5061.77 729.053 5061.77C600.505 5061.75 471.958 5061.77 343.41 5061.77C335.434 5061.77 327.458 5061.77 318.162 5061.77C315.206 5056.88 311.869 5052.06 309.227 5046.88C264.709 4959.64 224.911 4870.29 189.813 4778.86C139.885 4648.81 100.171 4515.66 69.0129 4379.9C58.8941 4335.81 47.22 4292.08 36.8885 4248.04C28.0628 4210.41 23.1738 4172.23 19.8422 4133.65C12.5523 4049.24 11.2507 3964.78 13.452 3880.18C13.5212 3877.52 19.1893 3828.15 19.8422 3823.5Z" fill="#A2764F"/>
<path d="M32.0424 2466.95C35.0201 2470.56 38.3243 2475.63 40.0176 2481.18C49.7227 2513.02 61.3042 2544.18 73.9456 2574.92C86.5872 2605.66 100.307 2635.96 113.146 2666.62C131.91 2711.43 151.561 2755.82 173.316 2799.28C184.632 2821.89 194.331 2845.33 206.149 2867.65C226.372 2905.86 247.635 2943.52 268.552 2981.35C313 3061.76 362.581 3138.96 414.998 3214.34C440.022 3250.33 464.924 3286.43 492.807 3320.37C511.769 3343.45 528.933 3368.05 548.497 3390.58C572.087 3417.75 591.467 3448.03 614.172 3475.78C631.835 3497.36 650.177 3518.4 668.478 3539.46C686.782 3560.52 705.409 3581.3 723.897 3602.2C724.779 3603.19 725.666 3604.19 726.574 3605.16C744.698 3624.64 762.237 3644.71 781.096 3663.44C806.107 3688.29 831.533 3712.79 857.91 3736.17C889.205 3763.91 921.684 3790.31 953.683 3817.25C980.61 3839.92 1007.44 3862.71 1034.58 3885.12C1055.57 3902.45 1076.84 3919.45 1098.23 3936.29C1120.15 3953.54 1142.19 3970.64 1164.5 3987.37C1188.94 4005.7 1213.67 4023.64 1238.42 4041.56C1286.86 4076.62 1335.39 4111.58 1383.92 4146.52C1395.24 4154.67 1406.7 4162.63 1418.14 4170.62C1423.1 4174.08 1428.03 4177.52 1429.9 4185.37C1414.07 4244.82 1399.94 4303.53 1377.25 4359.61C1367.03 4384.89 1354.71 4409.04 1338.38 4431.06C1332.65 4438.78 1325.86 4444.31 1316.9 4447.94C1297.87 4455.65 1279.1 4464 1257.3 4472.78C1234.2 4477.64 1214.01 4481.8 1193.83 4485.95C1137.12 4497.62 1080.72 4510.53 1025.09 4526.68C1005.93 4532.24 986.477 4536.25 966.671 4539.4C942.071 4543.3 918.994 4540.08 896.121 4531.93C863.965 4520.49 833.882 4504.51 804.949 4486.79C723.736 4437.05 642.931 4386.63 562.327 4335.9C531.347 4316.4 500.62 4296.38 472.138 4273.24C450.953 4256.02 429.907 4238.64 409.034 4221.05C374.926 4192.3 340.965 4163.39 307.027 4134.44C285.749 4116.29 264.729 4097.84 243.414 4079.74C207.379 4049.13 170.833 4019.14 137.747 3985.19C108.438 3955.12 78.5335 3925.63 48.7752 3896.01C38.3997 3885.68 27.9329 3875.38 14.9205 3868.23C5.53092 3860.5 2.43901 3850.06 2.01823 3838.43C1.705 3829.78 0.952678 3821.12 0.969035 3812.47C1.085 3751.17 0.0912268 3689.83 1.91349 3628.58C3.79447 3565.35 8.3964 3502.2 11.9408 3439.02C13.2094 3416.41 14.936 3393.83 16.3324 3371.22C20.9325 3296.76 25.3847 3222.3 30.0672 3147.84C36.1346 3051.37 38.4744 2954.81 35.9206 2858.18C34.4422 2802.24 30.8023 2746.35 29.9217 2690.41C28.8938 2625.13 29.7513 2559.82 29.9646 2494.52C29.9928 2485.89 31.0464 2477.25 32.0424 2466.95Z" fill="#1F999C"/>
<path d="M3477 4195.43C3485.81 4196 3494.91 4197.6 3503.84 4199.9C3529.7 4206.55 3555.93 4211.29 3582.62 4209.31C3603.76 4207.74 3624.92 4204.88 3645.7 4200.71C3676.27 4194.59 3707.08 4189.23 3736.69 4178.94C3759.28 4171.09 3782.27 4164.31 3804.59 4155.78C3857.38 4135.62 3910.17 4115.42 3962.4 4093.86C4000.5 4078.13 4037.98 4060.84 4073.84 4040.26C4094.03 4028.68 4115.01 4018.46 4135.17 4006.81C4170.86 3986.19 4206.63 3965.63 4241.58 3943.79C4286.7 3915.59 4331.26 3886.49 4375.67 3857.18C4423.97 3825.29 4470.32 3790.72 4515.42 3754.4C4541.32 3733.54 4567.98 3713.48 4590.85 3689.29C4637.56 3639.87 4679.71 3586.73 4715 3528.5C4729.76 3504.14 4743.85 3479.16 4752.25 3450.1C4763.15 3461.17 4767.9 3475.8 4772.86 3490.23C4783.95 3522.53 4788.87 3556.12 4792.61 3589.89C4797.69 3635.66 4797.86 3681.6 4796.99 3727.56C4796.13 3772.87 4791.53 3817.88 4786.29 3862.86C4775.11 3958.8 4756.69 4053.5 4738.09 4148.16C4722.95 4225.19 4706.56 4301.97 4691.56 4379.03C4683.18 4422.11 4675.7 4465.41 4669.24 4508.82C4656.43 4595.06 4642.66 4681.1 4622.77 4766.04C4615.65 4796.48 4609.99 4827.39 4600.8 4857.2C4587.09 4901.68 4575.15 4946.69 4560.77 4990.96C4556.45 5004.23 4551.29 5017.24 4546.29 5030.29C4543.19 5038.38 4539.3 5046.09 4532.06 5052.38C4529.86 5052.63 4527.27 5053.17 4524.67 5053.18C4422.1 5053.34 4319.53 5053.45 4215.11 5053.41C4213.86 5038.49 4208.47 5026.67 4198.58 5015.4C4144.11 4953.29 4090.51 4890.41 4036.07 4828.28C4016.77 4806.24 3996.18 4785.31 3975.73 4764.31C3927.32 4714.6 3883.54 4660.87 3838.59 4608.15C3816.11 4581.79 3793.92 4555.11 3770.07 4530.03C3708.04 4464.81 3649.97 4396.14 3591.45 4327.84C3559.8 4290.91 3527.36 4254.66 3495.32 4218.07C3489.19 4211.06 3483.24 4203.88 3477 4195.43Z" fill="#A2764F"/>
<path d="M3561.25 1793.81C3568.83 1812.22 3576.37 1830.64 3583.99 1849.03C3594.71 1874.89 3607.77 1899.51 3623.53 1922.66C3633.76 1937.69 3640.11 1953.6 3642.5 1972.19C3648.61 2019.82 3669.72 2060.77 3703.88 2094.63C3721.63 2112.22 3742.43 2125.02 3767.32 2133.42C3712.47 2202.6 3671.79 2277.6 3644.94 2360.36C3625.41 2420.57 3608.86 2481.58 3593.19 2542.86C3573.73 2618.95 3556.09 2695.53 3532.81 2770.61C3513.47 2832.97 3492.46 2894.73 3466.8 2954.84C3445.36 3005.07 3424.47 3055.53 3402.89 3105.7C3383.15 3151.58 3364.32 3197.95 3342.4 3242.79C3294.72 3340.35 3245.4 3437.12 3196.53 3534.1C3190.87 3545.33 3183.87 3555.89 3177.05 3565.22C3174.04 3554.8 3171.16 3545.98 3168.93 3537C3160.81 3504.28 3152.86 3471.51 3144.92 3438.75C3143.37 3432.35 3142.83 3425.57 3136.94 3419.5C3137.16 3408.47 3136.12 3399.48 3133.99 3390.23C3126.27 3356.68 3119.7 3322.87 3112.8 3289.13C3107.76 3264.5 3102.66 3239.88 3098.04 3215.17C3094.63 3196.96 3091.78 3178.64 3089.02 3160.32C3087.05 3147.23 3085.74 3134.05 3083.96 3120.93C3081.74 3104.56 3079.1 3088.24 3077.07 3071.84C3075.2 3056.73 3075.44 3041.18 3071.94 3026.49C3067.58 3008.23 3069.65 2989.56 3065.53 2971.25C3061.92 2955.25 3063.43 2938.14 3060.38 2921.95C3058.02 2909.46 3057.67 2896.92 3055.85 2884.48C3053.64 2869.44 3051.09 2854.44 3049.16 2839.36C3047.32 2824.92 3046.59 2810.32 3044.46 2795.93C3040.87 2771.72 3036.81 2747.57 3032.47 2723.48C3026.14 2688.32 3020.55 2653.08 3016.26 2617.58C3014.76 2605.14 3013.54 2592.59 3011.78 2580.14C3009.29 2562.46 3006.48 2544.78 3005.22 2527C3003.44 2501.87 2999.01 2476.88 3000.73 2451.52C3000.91 2448.95 2999.88 2446.3 2999.56 2443.67C2998.69 2436.46 2997.22 2429.23 2997.18 2422C2996.96 2376.7 2997.05 2331.39 2997.08 2286.08C2997.08 2281.42 2996.27 2276.42 2997.64 2272.16C3001.84 2259.13 3000.71 2245.83 3001.04 2232.57C3001.16 2227.91 3001.06 2223.2 3001.73 2218.62C3003.92 2203.58 3006.48 2188.59 3008.8 2173.57C3011.94 2153.29 3013.78 2132.74 3018.33 2112.79C3027.64 2072 3038.87 2031.69 3055.32 1993.06C3060.26 1981.44 3065.42 1969.92 3070.67 1958.44C3072.27 1954.95 3072.25 1952.16 3069 1949.79C3079.5 1937.77 3087.32 1924.02 3095.64 1910.46C3111.97 1883.82 3131.1 1859.27 3151.89 1835.7C3175.8 1808.59 3202.36 1784.77 3230.63 1762.61C3237.35 1757.34 3245.19 1753.5 3254.92 1750.09C3258.34 1752.89 3259.61 1754.51 3260.3 1756.34C3272.22 1787.94 3285.09 1819.22 3293.28 1852.11C3295 1859.03 3297.3 1865.8 3299.37 1872.8C3327.65 1876.04 3354.54 1873.88 3381.13 1867.71C3399.18 1863.53 3417.04 1858.49 3435.06 1854.19C3476.94 1844.18 3514.92 1826.1 3549.2 1800.09C3552.76 1797.39 3557.21 1795.88 3561.25 1793.81Z" fill="#F8C37F"/>
<path d="M768 1043.5C765.283 1038.95 762.526 1031.93 759.583 1027.53C736.999 993.762 713.364 960.656 691.891 926.2C645.711 852.1 615.515 771.276 593.086 687.156C578.89 633.914 578.413 580.69 587.089 526.737C592.382 493.819 598.208 461.105 608.998 429.462C631.193 364.375 664.512 305.664 709.87 253.907C744.674 214.193 783.567 178.81 824.552 145.598C840.057 133.033 854.691 119.396 869.785 106.321C885.892 92.3683 901.672 77.9987 918.316 64.7152C944.773 43.6005 975.476 31.0114 1007.88 22.0606C1059.58 7.7818 1112.27 1.20295 1165.83 0.678104C1181.31 0.52637 1194.76 3.95679 1204.63 17.0114C1207.38 20.6546 1211.4 23.3469 1216.09 27.6262C1226.96 26.481 1238.78 25.1657 1250.61 24.0026C1317.39 17.4353 1383.69 18.3134 1448.68 37.6274C1458.25 40.4699 1467.94 43.1929 1477.09 47.0817C1552.19 78.967 1619.27 122.548 1674.81 182.98C1699.3 209.622 1715.78 240.417 1723.16 275.716C1726.28 290.629 1727.75 306.002 1728.56 321.241C1729.09 331.239 1731.8 339.673 1739.04 346.209C1758.29 363.594 1766.58 386.599 1772.82 410.697C1783.5 451.935 1783.9 493.768 1779.11 535.742C1774.11 579.604 1762.56 621.961 1748.28 663.634C1735.12 702.041 1722.44 740.618 1708.89 778.886C1702.46 797.059 1694.49 814.688 1685.13 832.226C1682.57 823.942 1682.22 815.983 1681.55 808.05C1680.94 800.774 1681.05 793.208 1678.99 786.325C1671.64 761.831 1672.97 736.319 1669.28 711.418C1667.24 697.628 1666.57 683.589 1663.8 669.964C1658.91 645.961 1648.31 624.674 1629.52 608.295C1621.02 600.884 1612.21 593.757 1603.03 587.213C1589.49 577.566 1575.53 568.517 1561.7 559.298C1557.91 556.777 1553.93 554.558 1549.51 551.884C1543.93 554.891 1538.52 557.387 1533.54 560.553C1500.28 581.705 1464.67 598.092 1428 612.193C1357.22 639.416 1284.37 660.331 1211.76 681.892C1162.72 696.455 1113.21 709.468 1064.92 726.513C1056.78 729.386 1048.79 732.695 1040.77 735.895C1034.94 738.221 1030.73 742.081 1028.73 748.307C1023.45 764.72 1017.98 781.072 1011.27 797.346C1008.07 795.5 1005.77 794.041 1004.39 791.967C995.567 778.701 987.322 765.036 978.123 752.044C972.801 744.528 966.793 737.139 959.782 731.255C946.146 719.81 929.754 713.512 911.97 715.363C881.067 718.58 845.303 748.403 843.899 778.668C843.503 787.203 840.962 795.662 840.823 804.18C840.463 826.07 840.18 848.046 845.313 869.561C850.381 890.805 853.326 912.81 864.393 932.117C873.947 948.786 883.335 965.577 896.355 980.076C906.531 991.409 915.234 1004.06 925.318 1015.48C931.805 1022.83 939.365 1022.27 949.5 1027.53C951.25 1037.1 948.269 1054.07 945.1 1061.74C935.273 1085.51 929.482 1111.26 918.5 1135C899.591 1128.52 878.168 1121.19 861.107 1113.86C828.814 1099.99 801.475 1079.25 779.436 1051.64C776.219 1047.61 771.923 1046.97 768 1043.5Z" fill="#523821"/>
<path d="M915.246 1133.46C924.802 1109.58 934.186 1085.63 944.012 1061.86C947.181 1054.19 948.014 1046.62 947.28 1035.63C949.641 1026.27 951.178 1019.91 952.733 1013.55C961.205 978.918 970.249 944.413 978.003 909.619C986.513 871.432 999.146 834.559 1011.5 797.565C1016.89 781.188 1022.37 764.837 1027.64 748.423C1029.65 742.198 1033.85 738.338 1039.68 736.011C1047.71 732.811 1055.7 729.503 1063.84 726.629C1112.12 709.585 1161.63 696.572 1210.67 682.009C1283.28 660.448 1356.13 639.533 1426.91 612.309C1463.58 598.208 1499.19 581.822 1532.46 560.669C1537.44 557.503 1542.84 555.007 1548.42 552C1552.84 554.675 1556.82 556.893 1560.61 559.415C1574.44 568.634 1588.41 577.682 1601.94 587.33C1611.12 593.873 1619.93 601 1628.43 608.412C1647.22 624.791 1657.82 646.077 1662.71 670.08C1665.48 683.706 1666.15 697.745 1668.2 711.535C1671.88 736.436 1670.56 761.948 1677.9 786.442C1679.96 793.325 1679.85 800.891 1680.47 808.167C1681.13 816.099 1681.48 824.058 1683 833.31C1679.05 844.7 1674.09 854.795 1669.09 864.87C1660.53 882.111 1651.83 899.283 1643.44 916.6C1639.67 924.356 1636.33 932.327 1633.07 940.315C1613.24 989.031 1589.97 1036.08 1564.18 1081.89C1546.17 1113.89 1523.86 1142.94 1500.29 1170.87C1472.44 1203.89 1443.51 1235.99 1414.61 1268.1C1398.59 1285.9 1381.2 1302.36 1362.3 1317.2C1337.38 1336.77 1309.82 1348.6 1277.58 1346.04C1267.07 1345.21 1256.72 1342.37 1246.28 1340.54C1241.77 1339.75 1237.21 1339.2 1230.21 1337.77C1221.36 1333.48 1215.16 1329.57 1208.58 1326.49C1165.17 1306.19 1124.14 1281.66 1084.15 1255.49C1049.21 1232.62 1015.23 1208.28 981.067 1184.24C960.491 1169.75 940.357 1154.64 920.14 1139.65C918.1 1138.14 916.858 1135.55 915.246 1133.46Z" fill="#C29E7E"/>
<path d="M1628.66 3278.11C1628.17 3249.48 1632.09 3221.27 1636.17 3193.02C1638.63 3175.99 1639.26 3158.7 1641.11 3141.57C1643.23 3121.84 1645.65 3102.14 1648.2 3082.46C1649.82 3069.97 1649.45 3057.43 1651.9 3044.85C1655.3 3027.38 1655.26 3009.26 1657.1 2991.46C1659.21 2971.06 1661.77 2950.71 1664.14 2930.34C1664.29 2929.01 1664.56 2927.7 1664.66 2926.38C1666.16 2905.88 1667.33 2885.34 1669.23 2864.88C1671 2845.78 1673.53 2826.75 1675.75 2807.69C1675.98 2805.71 1676.53 2803.76 1676.67 2801.79C1678.18 2779.95 1677.76 2757.77 1681.64 2736.37C1685.7 2714.01 1682.04 2691.12 1688.3 2669.16C1688.48 2668.52 1688.54 2667.85 1688.58 2667.18C1690.07 2644.68 1691.67 2622.19 1692.98 2599.67C1693.56 2589.74 1692.86 2579.82 1695.96 2570.01C1697.51 2565.11 1696.74 2559.45 1696.93 2554.14C1697.38 2541.55 1696.62 2528.97 1700.11 2516.49C1701.86 2510.27 1700.78 2503.26 1700.99 2496.61C1701.37 2484.68 1700.48 2472.73 1704.09 2460.96C1705.59 2456.04 1704.69 2450.39 1704.91 2445.07C1705.53 2429.84 1704.21 2414.57 1708.23 2399.43C1710.06 2392.56 1708.76 2384.86 1708.99 2377.54C1709.42 2363.63 1707.88 2349.56 1712.37 2335.95C1712.98 2334.12 1712.76 2331.99 1712.76 2330C1712.89 2294.7 1713.53 2259.38 1712.81 2224.1C1712.53 2210.3 1709.36 2196.54 1707.17 2182.81C1703.95 2162.54 1700.33 2142.34 1697.05 2122.09C1692.28 2092.68 1687.47 2063.28 1683.03 2033.83C1676.59 1991.06 1663.63 1949.85 1652.54 1908.25C1639.04 1857.6 1624.22 1807.28 1609.12 1757.08C1602.24 1734.2 1593.73 1711.78 1585.11 1689.47C1580.1 1676.5 1573.29 1664.29 1563.29 1654.17C1552.08 1642.81 1541.09 1631.24 1529.6 1618.41C1533.6 1618.38 1538.41 1618.96 1542.34 1621.12C1555.15 1628.18 1568.27 1634.95 1580.12 1643.44C1599.05 1657.01 1617.37 1671.48 1635.35 1686.3C1652.36 1700.33 1667.15 1716.46 1678.94 1735.39C1689.84 1752.9 1701.67 1769.87 1713.53 1786.77C1741.1 1826.02 1759.14 1869.21 1769.1 1916.1C1777.68 1956.54 1783.67 1997.36 1788.56 2038.34C1794.01 2083.96 1798.89 2129.66 1803.48 2175.38C1806.95 2209.84 1809.76 2244.36 1812.54 2278.89C1821.98 2396.47 1825.31 2514.35 1829.65 2632.18C1830.56 2656.72 1834.86 2681.14 1837.77 2705.59C1839.65 2721.44 1842.31 2737.2 1843.81 2753.08C1848.57 2803.47 1852.56 2853.94 1857.6 2904.3C1861.77 2946.04 1866.54 2987.72 1871.88 3029.33C1878.31 3079.52 1885.29 3129.64 1892.62 3179.71C1900.73 3235.04 1909.4 3290.29 1918.01 3345.55C1941.77 3497.93 1983.36 3645.88 2029.29 3792.74C2036.64 3816.23 2045.39 3839.28 2052.63 3864.99C2035.2 3871.27 2018.88 3875.75 2003.73 3883.83C2000.99 3885.3 1997.46 3885.26 1993.6 3884.67C1905.75 3756.62 1822.31 3627.46 1745.37 3494.16C1704.43 3423.24 1665.7 3351.14 1628.66 3278.11Z" fill="#2A6465"/>
<path d="M2696.77 1227.88C2713.7 1218.54 2718.35 1210.56 2714.78 1191.85C2708.35 1158.07 2709.15 1124.3 2713.46 1090.43C2713.54 1089.84 2713.98 1089.3 2714.85 1087.52C2717.61 1088.84 2720.67 1089.76 2723.11 1091.55C2756.83 1116.22 2795.5 1127.76 2836.13 1133.69C2851.91 1135.99 2867.92 1136.84 2883.84 1138.12C2888.46 1138.5 2893.18 1138.35 2897.81 1137.94C2913.13 1136.56 2917.44 1132.06 2920.04 1115.38C2920.23 1114.19 2920.92 1113.07 2921.84 1110.76C2926.53 1112.72 2931.23 1114.62 2935.88 1116.64C2953.01 1124.06 2970.38 1130.51 2988.79 1134.34C3011.56 1139.07 3033.86 1135.66 3056.32 1132.69C3068.85 1131.04 3081.41 1129.23 3094.01 1128.62C3117.5 1127.48 3140.37 1130.03 3162.15 1140.36C3181.98 1149.77 3202.36 1158.06 3222.65 1166.49C3238.61 1173.12 3254.57 1179.86 3270.92 1185.4C3294.63 1193.43 3315.44 1206.24 3336.83 1223.39C3341.72 1228.69 3345.57 1231.59 3347.71 1235.44C3366.63 1269.42 3378.04 1306.38 3383.99 1344.3C3390 1382.52 3382.63 1419.32 3360.73 1452.71C3341.73 1481.69 3319.15 1507.56 3295.9 1532.99C3278.91 1551.59 3261.34 1569.68 3244.92 1588.76C3227.23 1609.32 3210.32 1630.58 3193.64 1651.98C3189.3 1657.55 3187.09 1664.79 3183.9 1671.26C3181.01 1672.54 3177.28 1673.07 3175.37 1675.21C3160.75 1691.55 3146.56 1708.27 3132.06 1724.71C3127.68 1729.68 3123.13 1734.66 3117.94 1738.75C3106.17 1748.02 3096.06 1747.93 3083.28 1739.73C3024.56 1702.01 2974.31 1654.87 2929.59 1601.59C2910.79 1579.19 2891.81 1556.93 2873.48 1534.15C2845.91 1499.87 2822.89 1462.58 2801.01 1424.45C2770.23 1370.82 2738.19 1317.91 2711.22 1262.2C2706.01 1251.45 2701.61 1240.31 2696.77 1227.88Z" fill="#C29E7E"/>
<path d="M3067.91 1950.58C3072.25 1952.16 3072.27 1954.95 3070.67 1958.44C3065.42 1969.92 3060.26 1981.44 3055.32 1993.06C3038.87 2031.69 3027.64 2072 3018.33 2112.79C3013.78 2132.74 3011.94 2153.29 3008.8 2173.57C3006.48 2188.59 3003.92 2203.58 3001.73 2218.62C3001.06 2223.2 3001.16 2227.91 3001.04 2232.57C3000.71 2245.83 3001.84 2259.13 2997.64 2272.16C2996.27 2276.42 2997.08 2281.42 2997.08 2286.08C2997.05 2331.39 2996.96 2376.7 2997.18 2422C2997.22 2429.23 2998.69 2436.46 2999.56 2443.67C2999.88 2446.3 3000.91 2448.95 3000.73 2451.52C2999.01 2476.88 3003.44 2501.87 3005.22 2527C3006.48 2544.78 3009.29 2562.46 3011.78 2580.14C3013.54 2592.59 3014.76 2605.14 3016.26 2617.58C3020.55 2653.08 3026.14 2688.32 3032.47 2723.48C3036.81 2747.57 3040.87 2771.72 3044.46 2795.93C3046.59 2810.32 3047.32 2824.92 3049.16 2839.36C3051.09 2854.44 3053.64 2869.44 3055.85 2884.48C3057.67 2896.92 3058.02 2909.46 3060.38 2921.95C3063.43 2938.14 3061.92 2955.25 3065.53 2971.25C3069.65 2989.56 3067.58 3008.23 3071.94 3026.49C3075.44 3041.18 3075.2 3056.73 3077.07 3071.84C3079.1 3088.24 3081.74 3104.56 3083.96 3120.93C3085.74 3134.05 3087.05 3147.23 3089.02 3160.32C3091.78 3178.64 3094.63 3196.96 3098.04 3215.17C3102.66 3239.88 3107.76 3264.5 3112.8 3289.13C3119.7 3322.87 3126.27 3356.68 3133.99 3390.23C3136.12 3399.48 3137.16 3408.47 3136.1 3420.6C3117.09 3449.7 3099.37 3476.28 3080.73 3502.21C3033.76 3567.57 2986.8 3632.96 2938.98 3697.7C2911.33 3735.14 2881.6 3771.04 2853.58 3808.23C2832.37 3836.37 2812.4 3865.45 2790.39 3894.07C2780.77 3891.27 2772.69 3888.34 2764.49 3885.81C2755.66 3883.08 2746.77 3878.95 2737.79 3878.62C2725.09 3878.15 2712.91 3875.09 2700.42 3873.88C2732.97 3821.2 2750.12 3762.3 2768.52 3703.99C2784.54 3653.22 2799.21 3602.03 2814.84 3551.14C2841.62 3463.97 2866.64 3376.31 2887.67 3287.56C2904.24 3217.63 2917.55 3147.02 2928.14 3075.94C2933.23 3041.74 2936.9 3007.33 2941.34 2973.03C2944.75 2946.65 2948.51 2920.31 2951.84 2893.92C2953.51 2880.73 2955.11 2867.48 2955.78 2854.21C2957.57 2818.98 2960.66 2783.67 2959.77 2748.48C2958.96 2716.67 2953.7 2684.97 2950.18 2653.24C2947.24 2626.79 2944 2600.38 2940.87 2573.96C2937.43 2544.9 2933.95 2515.84 2930.49 2486.79C2930.25 2484.8 2929.94 2482.82 2929.79 2480.83C2926.15 2431.66 2923.27 2382.42 2925.96 2333.13C2929.45 2269.19 2937.78 2205.91 2957.51 2144.66C2978.33 2079.99 3008.58 2020.35 3052.99 1968.41C3057.74 1962.85 3062.21 1957.05 3067.91 1950.58Z" fill="#F2926F"/>
<path d="M914.907 1133.21C917.945 1135.44 919.187 1138.02 921.227 1139.54C941.444 1154.52 961.579 1169.63 982.154 1184.12C1016.31 1208.16 1050.3 1232.5 1085.24 1255.37C1125.23 1281.54 1166.26 1306.07 1209.67 1326.37C1216.25 1329.45 1222.45 1333.36 1229.81 1338.08C1220.9 1361.67 1210.29 1383.79 1203.84 1407.52C1202.29 1413.22 1201.32 1419.09 1200.2 1426.32C1197.85 1434.57 1194.63 1441.2 1193.08 1448.2C1186.92 1476.11 1183 1504.34 1180.16 1532.82C1176.99 1564.55 1172.9 1596.16 1172.11 1628.11C1171.86 1637.98 1169.47 1647.8 1167.87 1658.92C1159.49 1666.35 1148.43 1671.32 1137.48 1675.51C1099.51 1690.04 1059.99 1698.81 1020.03 1706.18C985.878 1712.47 952.586 1707.76 919.031 1702.66C882.701 1697.14 847.545 1687.6 813.591 1673.59C758.514 1650.87 714.295 1614.97 681.635 1564.98C668.749 1545.26 660.83 1523.39 653.948 1501.12C650.39 1489.61 649.581 1477.72 653.373 1464.39C678.612 1424.43 700.617 1384.29 720.186 1342.69C738.737 1303.26 752.065 1262.45 757.594 1219.16C760.963 1192.79 765.182 1166.5 767.62 1140.04C770.554 1108.2 770.07 1076.25 767.197 1042.78C771.687 1044.63 776.218 1047.61 779.435 1051.64C801.475 1079.25 828.813 1099.99 861.107 1113.86C878.167 1121.19 895.998 1126.72 914.907 1133.21Z" fill="#A2764F"/>
<path d="M3184.87 1672.25C3187.09 1664.79 3189.3 1657.55 3193.64 1651.98C3210.32 1630.58 3227.23 1609.32 3244.92 1588.76C3261.34 1569.68 3278.91 1551.59 3295.9 1532.99C3319.15 1507.56 3341.73 1481.69 3360.73 1452.71C3382.63 1419.32 3390 1382.52 3383.99 1344.3C3378.04 1306.38 3366.63 1269.42 3347.71 1235.44C3345.57 1231.59 3341.72 1228.69 3337.89 1224.32C3340.74 1221.31 3341.15 1218.5 3339.4 1215C3334.94 1206.06 3330.79 1196.96 3326.05 1188.18C3316.49 1170.45 3311.04 1151.21 3305.21 1132.13C3303.28 1125.82 3302.21 1119.16 3301.44 1112.58C3298.28 1085.72 3306.06 1062.76 3325.57 1043.59C3337.1 1032.26 3349.23 1022.01 3364.3 1015.91C3399.8 1001.54 3440.06 1013.33 3464.23 1044.8C3476.24 1060.44 3483.66 1078.18 3487.85 1097.22C3494.1 1125.57 3494.23 1153.97 3487.38 1182.36C3475.63 1231.05 3459.48 1278.2 3438.35 1323.61C3434.46 1331.96 3429.82 1339.97 3425.02 1349.09C3430.39 1350.34 3434.78 1351.37 3439.79 1352.54C3442.65 1357.27 3445.76 1362.35 3448.8 1367.47C3479.4 1418.92 3522.5 1456.28 3576.76 1481.1C3589.47 1486.91 3602.18 1492.77 3614.67 1499.05C3621.79 1502.62 3628.67 1506.79 3635.3 1511.22C3642.29 1515.89 3643.99 1520.86 3639.87 1528.31C3634.74 1537.58 3628.78 1546.5 3622.3 1554.89C3602.71 1580.22 3583.63 1605.82 3570 1635.03C3561.78 1652.62 3555.86 1670.82 3552.59 1690.03C3547.22 1721.6 3551.44 1752.35 3559.1 1782.92C3559.75 1785.5 3560.54 1788.05 3561.26 1792.21C3557.21 1795.87 3552.76 1797.39 3549.21 1800.09C3514.92 1826.1 3476.94 1844.18 3435.06 1854.19C3417.04 1858.49 3399.18 1863.53 3381.13 1867.71C3354.54 1873.88 3327.65 1876.04 3299.37 1872.8C3297.3 1865.8 3295 1859.03 3293.28 1852.11C3285.09 1819.22 3272.22 1787.94 3260.3 1756.34C3259.61 1754.51 3258.34 1752.89 3256.3 1749.92C3253.87 1733.06 3245.46 1720.03 3239.19 1706.31C3237.19 1701.94 3232.17 1698.34 3227.73 1695.79C3213.98 1687.91 3199.83 1680.71 3184.87 1672.25Z" fill="#A2764F"/>
<path d="M2698.99 3874.46C2712.91 3875.09 2725.09 3878.15 2737.79 3878.62C2746.77 3878.95 2755.66 3883.08 2764.49 3885.81C2772.69 3888.34 2780.77 3891.27 2790.85 3895.38C2796.73 3900.22 2800.43 3903.99 2804.62 3907.12C2839.41 3933.13 2858.87 3967.83 2866.07 4010.55C2868.77 4026.52 2867.65 4042.34 2868.94 4058.06C2868.92 4057.95 2869.14 4057.88 2868.17 4058.33C2866.69 4060.81 2866.2 4062.85 2865.36 4066.42C2863.9 4071.07 2862.74 4074.19 2861.69 4077.35C2847.71 4119.63 2821.77 4152.05 2782.52 4173.54C2777.86 4176.09 2773.42 4179.02 2768.87 4181.78C2754.59 4184.79 2740.18 4187.26 2726.07 4190.94C2707.12 4195.89 2689.02 4191.29 2670.96 4187.04C2602.61 4170.95 2557.68 4110.64 2552.46 4049.46C2551.79 4041.53 2550.85 4033.62 2550.01 4024.04C2550.82 4019.22 2552.01 4016.11 2552.49 4012.9C2561.77 3950.19 2596.17 3907.62 2655.14 3884.78C2665.7 3880.69 2676.56 3877.8 2688 3877.34C2691.21 3877.21 2694.38 3875.84 2698.99 3874.46Z" fill="#C29E7E"/>
<path d="M1994.29 3885.92C1997.46 3885.26 2000.99 3885.3 2003.73 3883.83C2018.88 3875.75 2035.2 3871.27 2053.01 3866.48C2062.89 3865.7 2071.53 3865.79 2080.16 3866.09C2138.36 3868.13 2183.42 3893.6 2214.38 3942.86C2228.8 3965.8 2234.7 3991.77 2237.1 4020.27C2236.36 4056.78 2226.44 4088.82 2205.41 4116.69C2173.98 4158.36 2132.51 4181.4 2079.49 4182.21C2037.54 4182.85 2000.86 4168.92 1970.7 4140.45C1941.27 4112.69 1923.74 4078.11 1920.53 4037.1C1920.32 4034.45 1920.01 4031.81 1919.71 4025.76C1919.83 4020.36 1920.06 4018.38 1920.12 4016.38C1921.62 3966.36 1944.2 3927.4 1982.74 3896.74C1986.85 3893.46 1990.45 3889.54 1994.29 3885.92Z" fill="#C29E7E"/>
<path d="M79.5103 2006.04C79.7448 2008.12 78.6442 2010.53 76.2444 2013.47C76.0219 2011.46 77.0985 2008.93 79.5103 2006.04Z" fill="#1F999C"/>
<path d="M1529.44 1616.79C1528.47 1617.51 1527.39 1616.97 1525.85 1615.51C1526.59 1615.13 1527.91 1615.45 1529.44 1616.79Z" fill="#2A6465"/>
<path d="M3952.98 1637.22C3951.77 1637.56 3950.64 1636.84 3949.6 1635.05C3950.82 1634.71 3951.95 1635.43 3952.98 1637.22Z" fill="#F8C37F"/>
<path d="M2768.35 4183.02C2773.42 4179.02 2777.86 4176.09 2782.52 4173.54C2821.77 4152.05 2847.71 4119.63 2861.69 4077.35C2862.74 4074.19 2863.9 4071.07 2866.21 4065.85C2867.99 4061.8 2868.57 4059.84 2869.14 4057.88C2869.14 4057.88 2868.92 4057.95 2870.24 4057.64C2875.15 4052.55 2878.95 4047.92 2882.3 4042.98C2913.72 3996.75 2944.83 3950.31 2976.46 3904.23C3046.59 3802.07 3109.69 3695.66 3168.46 3586.64C3171.91 3580.25 3174.5 3573.39 3177.49 3566.75C3183.87 3555.89 3190.87 3545.33 3196.53 3534.1C3245.4 3437.12 3294.72 3340.35 3342.4 3242.79C3364.32 3197.95 3383.15 3151.58 3402.89 3105.7C3424.47 3055.53 3445.36 3005.07 3466.8 2954.84C3492.46 2894.73 3513.47 2832.97 3532.81 2770.61C3556.09 2695.53 3573.73 2618.95 3593.19 2542.86C3608.86 2481.58 3625.41 2420.57 3644.94 2360.36C3671.79 2277.6 3712.47 2202.6 3768.44 2134.27C3819.34 2137.19 3857.73 2115.74 3888.58 2077.9C3907.71 2054.44 3920.74 2027.67 3933.16 1998.13C3936.2 1996 3936.84 1994.95 3936.89 1993.54C3936.89 1993.54 3936.62 1993.82 3936.46 1993.7C3943.63 1994.69 3948.81 1989.69 3954.72 1986.98C3974.74 1977.81 3994.9 1969.06 4016.54 1964.45C4026.94 1962.24 4037.43 1960.21 4047.99 1959.02C4057.92 1957.9 4067.63 1959.41 4077.57 1961.73C4101.08 1967.23 4123.47 1975.28 4145.17 1985.75C4186.63 2005.78 4221.56 2033.84 4251.42 2068.82C4289.31 2113.22 4315.19 2163.69 4329.95 2219.97C4336.38 2244.49 4340.25 2269.4 4341.42 2294.81C4344.39 2359.37 4334.79 2422.22 4317.62 2484.26C4292.73 2574.18 4263.84 2662.75 4229.81 2749.64C4220.06 2774.54 4206.7 2797.6 4193.56 2820.8C4164.67 2871.82 4135.91 2922.91 4107.5 2974.19C4076.07 3030.92 4037.77 3082.89 3998.63 3134.37C3954.59 3192.28 3907.22 3247.17 3855.12 3298.03C3811.7 3340.41 3771.49 3385.81 3732.08 3431.92C3695.64 3474.55 3655.32 3513.26 3613.59 3550.69C3575.42 3584.94 3538.4 3620.5 3501.12 3655.75C3466.75 3688.25 3433.06 3721.49 3398.41 3753.7C3354.51 3794.52 3309.66 3834.31 3260.64 3873.11C3244.32 3886.44 3229.68 3897.83 3215.66 3909.96C3185.08 3936.4 3154.75 3963.12 3124.49 3989.93C3111.13 4001.76 3098.21 4014.07 3085.09 4026.16C3067.14 4040.92 3049.42 4055.98 3031.19 4070.38C2998.3 4096.36 2965.33 4122.25 2931.97 4147.63C2903.34 4169.4 2875.38 4191.9 2848.48 4215.78C2837.06 4225.93 2824.9 4235.26 2812.79 4244.61C2801.73 4253.14 2790.16 4261.01 2779.05 4269.5C2762.51 4282.14 2744.5 4291.92 2724.86 4298.79C2709.16 4304.27 2693.57 4310.05 2677.79 4315.28C2673.51 4316.7 2668.73 4316.61 2662.73 4316.72C2661.28 4316.23 2661.34 4316.15 2661.34 4316.15C2661.3 4306.98 2664.44 4299.16 2671.63 4293.33C2692.48 4276.42 2708.13 4254.73 2725.5 4234.65C2739.86 4218.06 2753.73 4201.07 2768.35 4183.02Z" fill="#52A3DD"/>
<path d="M1993.6 3884.67C1990.45 3889.54 1986.85 3893.46 1982.74 3896.74C1944.2 3927.4 1921.62 3966.36 1920.12 4016.38C1920.06 4018.38 1919.83 4020.36 1919.12 4024.08C1838.09 4025.87 1757.6 4025.93 1677.12 4026C1650.99 4020.92 1634.6 4035.9 1619.56 4053.83C1605.53 4070.55 1591.35 4087.14 1577.22 4103.77C1569.51 4112.85 1561.85 4121.97 1553.98 4130.91C1551.81 4133.37 1548.99 4135.26 1545.16 4138.04C1537.58 4131.01 1530.98 4123.6 1525.11 4115.65C1509.76 4094.89 1494.65 4073.94 1479.64 4052.93C1476.99 4049.23 1475.28 4044.85 1472.77 4039.42C1485.61 3993.38 1499.19 3948.82 1511.93 3904.02C1533.23 3829.11 1552.93 3753.74 1567.06 3677.11C1578.04 3617.56 1587.93 3557.8 1597.38 3497.98C1604.34 3453.94 1609.97 3409.68 1615.89 3365.48C1619.69 3337.12 1622.92 3308.69 1627.54 3279.2C1665.7 3351.14 1704.43 3423.24 1745.37 3494.16C1822.31 3627.46 1905.75 3756.62 1993.6 3884.67Z" fill="white"/>
<path d="M2660.11 4315.3C2661.34 4316.15 2661.28 4316.23 2661.21 4316.21C2663.2 4319.57 2664.98 4323.15 2667.34 4326.28C2689.93 4356.28 2702.04 4389.9 2705.77 4427.37C2710.48 4474.64 2699.01 4517.4 2671.56 4555.2C2638.93 4600.14 2594.63 4628.83 2539.28 4636.86C2496.02 4643.14 2454.39 4635.08 2416.08 4613.22C2364.23 4583.64 2333.58 4537.86 2322.31 4480.53C2308.94 4412.53 2328.03 4352.59 2377.89 4304.01C2420.33 4262.67 2472.23 4244.97 2531.09 4250.79C2570.27 4254.66 2605.7 4269.49 2636.26 4294.88C2643.93 4301.25 2651.35 4307.92 2660.11 4315.3Z" fill="#C29E7E"/>
<path d="M1669.22 4340.59C1674.41 4335.77 1679.09 4332.14 1684.49 4327.46C1688.71 4324.48 1692.38 4322.82 1695.68 4320.61C1728.78 4298.44 1765.17 4289.08 1805.01 4288.82C1845.18 4288.56 1881.23 4299.89 1914.1 4321.66C1953.98 4348.06 1980.13 4385.08 1992.14 4431.32C1996.45 4447.92 1999.76 4465.35 1999.65 4482.38C1999.49 4504.87 1995.87 4527.45 1987.22 4548.64C1960.74 4613.47 1913.8 4654.61 1845.67 4672.06C1784.28 4687.78 1707.54 4660.5 1672.05 4624.17C1642.72 4594.16 1622.34 4559.91 1614.45 4519.09C1602.36 4456.49 1617.06 4400.5 1659.97 4352.57C1663.06 4349.13 1665.81 4345.39 1669.22 4340.59Z" fill="#C29E7E"/>
<path d="M3086.13 4027.28C3098.21 4014.07 3111.13 4001.76 3124.49 3989.93C3154.75 3963.12 3185.08 3936.4 3215.66 3909.96C3229.68 3897.83 3244.32 3886.44 3260 3874.25C3266.97 3890.77 3272.83 3907.68 3278.24 3924.74C3288.93 3958.44 3303.12 3990.73 3317.23 4024.64C3307.69 4026.57 3297.31 4023.54 3288.87 4031.4C3288 4032.21 3286.14 4032.95 3285.23 4032.57C3271.27 4026.62 3257.98 4035.31 3244.11 4034.25C3228.89 4033.08 3213.5 4033.98 3198.19 4033.98C3176.22 4033.99 3154.25 4033.81 3132.28 4034.06C3116.95 4034.22 3101.75 4034.01 3086.13 4027.28Z" fill="white"/>
<path d="M3472.17 4190.95C3473.02 4190.58 3474.53 4191.26 3476.53 4193.07C3475.63 4193.47 3474.23 4192.74 3472.17 4190.95Z" fill="#A2764F"/>
<path d="M3935.73 1993.14C3936.84 1994.95 3936.2 1996 3934.05 1996.95C3933.61 1995.72 3934.09 1994.23 3935.73 1993.14Z" fill="#F8C37F"/>
<path d="M3177.05 3565.22C3174.5 3573.39 3171.91 3580.25 3168.46 3586.64C3109.69 3695.66 3046.59 3802.07 2976.46 3904.23C2944.83 3950.31 2913.72 3996.75 2882.3 4042.98C2878.95 4047.92 2875.15 4052.55 2870.27 4057.75C2867.65 4042.34 2868.77 4026.52 2866.07 4010.55C2858.87 3967.83 2839.41 3933.13 2804.62 3907.12C2800.43 3903.99 2796.73 3900.22 2792.34 3895.42C2812.4 3865.45 2832.37 3836.37 2853.58 3808.23C2881.6 3771.04 2911.33 3735.14 2938.98 3697.7C2986.8 3632.96 3033.76 3567.57 3080.73 3502.21C3099.37 3476.28 3117.09 3449.7 3136.08 3422.31C3142.83 3425.57 3143.37 3432.35 3144.92 3438.75C3152.86 3471.51 3160.81 3504.28 3168.93 3537C3171.16 3545.98 3174.04 3554.8 3177.05 3565.22Z" fill="white"/>
<path d="M1011.27 797.346C1000.23 834.442 987.6 871.315 979.09 909.503C971.336 944.296 962.292 978.802 953.82 1013.43C952.265 1019.79 950.729 1026.15 948.167 1033.93C937.216 1031.68 931.805 1022.83 925.317 1015.48C915.234 1004.06 906.531 991.409 896.354 980.076C883.335 965.576 873.946 948.786 864.392 932.117C853.326 912.81 850.38 890.804 845.312 869.561C840.18 848.046 840.463 826.069 840.822 804.179C840.962 795.662 843.503 787.203 843.899 778.668C845.303 748.403 881.067 718.58 911.969 715.363C929.754 713.512 946.145 719.81 959.781 731.255C966.792 737.139 972.801 744.528 978.123 752.044C987.322 765.036 995.566 778.701 1004.39 791.967C1005.76 794.04 1008.07 795.5 1011.27 797.346Z" fill="#A2764F"/>
<path d="M2868.16 4058.33C2868.57 4059.84 2867.99 4061.8 2866.56 4064.33C2866.2 4062.85 2866.69 4060.81 2868.16 4058.33Z" fill="white"/>
</svg>
