<svg width="15883" height="2161" viewBox="0 0 15883 2161" fill="none" xmlns="http://www.w3.org/2000/svg">
<g clip-path="url(#clip0_460_788)">
<path d="M662.773 951.082C660.414 954.866 657.05 958.625 653.763 962.448C625.545 995.276 597.68 1028.34 574.745 1065.18C556.356 1094.72 531.672 1147.46 516.025 1178.45C501.14 1207.94 496.846 1216.27 483.801 1246.58C476.958 1262.47 468.944 1277.87 460.906 1293.98C432.539 1294.71 404.72 1294.72 376.911 1295.25C343.471 1295.88 310.201 1293.5 276.943 1290.61C239.865 1287.39 202.843 1283.95 165.53 1283.69C122.216 1283.38 79.2725 1278.61 37.0866 1268.39C31.2767 1266.98 25.4008 1265.58 19.8655 1263.41C15.5785 1261.72 11.345 1259.33 7.8456 1256.38C-0.535139 1249.3 -2.19921 1239.72 2.84193 1230.06C6.02517 1223.96 10.4953 1218.98 16.5091 1215.28C26.0585 1209.41 36.4819 1205.76 47.1173 1202.44C111.539 1182.32 176.218 1162.95 240.243 1141.66C290.479 1124.96 340.199 1106.61 389.579 1087.55C431.867 1071.23 471.511 1049.24 511.308 1027.73C555.974 1003.6 600.32 978.854 646.516 957.603C651.546 955.289 656.705 953.252 662.773 951.082Z" fill="url(#paint0_linear_460_788)"/>
<path d="M0.966545 1249.84C0.910655 1249.79 0.906634 1249.76 0.963217 1249.75C178.237 1200.71 561.428 1145.94 662.452 1287.64C445.559 1300.9 3.30359 1306.51 0.966545 1249.84Z" fill="url(#paint1_linear_460_788)"/>
<path d="M666.122 949.16C699.783 925.763 737.996 911.475 775.051 894.911C794.969 886.007 815.184 877.755 834.026 866.648C862.144 850.073 887.843 830.177 912.397 808.781C949.233 776.683 982.725 741.179 1016.47 705.941C1036.59 684.922 1056.13 663.318 1076.69 642.739C1099.41 619.995 1120.73 596.015 1141.25 571.347C1174.91 530.888 1208.44 490.308 1241.23 449.14C1264.95 419.36 1287.05 388.299 1310.44 358.248C1352.81 303.793 1389.76 245.641 1427.57 188.061C1442.37 165.532 1457.8 143.424 1472.71 120.976C1488.82 96.7427 1504.57 72.2812 1520.64 48.0274C1527.97 36.9738 1535.55 26.0854 1543.29 15.3199C1546.01 11.5374 1549.19 7.8958 1552.79 4.96518C1563.99 -4.16332 1574.32 -0.430788 1577.09 13.9088C1578.13 19.2806 1578.3 25.0893 1577.49 30.492C1576.03 40.179 1574.16 49.8935 1571.37 59.2744C1556.65 108.873 1528.17 206.497 1528.17 206.497C1528.17 206.497 1499.97 293.646 1486.08 336.332C1473.46 375.098 1457.23 412.303 1440.4 449.287C1412.76 510.038 1367.61 624.308 1361.88 633.396C1356.16 642.485 1322.8 727.387 1301.58 773.67C1281.97 816.439 1262.62 859.349 1247.96 904.152C1243.31 918.356 1239.33 932.779 1233.74 948.353C1232.04 951.873 1230.91 954.403 1230.52 956.672C1226.28 963.93 1225.02 978.14 1221.83 985.123C1202.68 1026.95 1195.64 1061.86 1168.2 1098.49C1158.23 1111.8 1148.72 1126.3 1138.34 1139.27C1124.75 1156.25 1106.23 1178.77 1091.14 1194.51C1083.76 1202.2 1072.87 1209.35 1065.77 1217.31C1052.42 1232.27 1037.78 1248.98 1024.02 1263.56C1009.93 1278.49 994.439 1291.95 979.71 1306.27C957.95 1327.42 940.057 1348.91 917.093 1368.89C900.048 1383.73 882.711 1396.98 866.036 1412.25C847.751 1428.98 828.463 1448.61 809.842 1464.91C794.143 1478.66 772.249 1494.09 755.574 1506.66C717.76 1535.18 683.085 1553.07 643.828 1579.56C618.353 1596.76 589.396 1620.29 563.229 1636.41C528.337 1657.89 474.913 1681.23 439.922 1702.56C424.271 1712.1 429.677 1718.21 414.789 1728.9C394.358 1743.57 369.647 1755.65 349.69 1770.97C339.547 1778.75 333.252 1785.31 323.382 1793.45C317.129 1798.6 309.512 1808.69 303.129 1813.68C286.647 1826.55 273.296 1838.01 258.494 1852.86C256.386 1854.97 253.035 1857.35 240.842 1849.53C230.644 1859.25 257.142 1897.87 247.482 1908.1C236.951 1919.25 238.547 1929.78 228.631 1941.5C222.303 1948.97 191.785 1952.92 185.923 1960.76C170.459 1981.46 178.132 1995.99 169.225 2020.12C160.339 2044.18 127.514 2057.11 128.444 2083.27C128.74 2091.6 122.752 2097.63 126.197 2105.11C127.776 2108.54 126.78 2113.78 128.123 2117.31C125.786 2116.38 115.513 2111.56 113.433 2110.22C79.9917 2088.67 57.5777 2059.06 48.1311 2020.12C40.5576 1988.9 39.7103 1957.49 45.9153 1925.93C47.4833 1917.96 48.9921 1909.97 50.5435 1902C55.3712 1877.18 62.4996 1853.13 72.2485 1829.7C82.9604 1803.96 94.8973 1779.12 110.557 1755.88C139.242 1713.33 166.797 1669.96 198.651 1629.68C239.759 1577.69 280.134 1525.11 323.382 1474.82C354.331 1438.83 384.538 1402.2 414.789 1365.62C428.692 1348.81 441.506 1331.14 452.76 1312.4C455.175 1308.38 457.218 1304.13 460.343 1298.59C468.736 1281.39 476.749 1265.81 483.591 1249.74C496.633 1219.1 509.482 1188.4 524.365 1158.58C540.008 1127.23 556.131 1096.19 574.516 1066.32C597.446 1029.06 625.305 995.634 653.518 962.44C656.804 958.574 660.167 954.773 663.495 950.941C663.495 950.941 663.469 951.146 663.919 950.939C665.073 950.342 665.657 949.818 666.122 949.16Z" fill="url(#paint2_linear_460_788)"/>
<path d="M120.463 2112.88C119.07 2109.38 117.924 2105.75 116.344 2102.32C112.899 2094.84 111.22 2087.16 110.924 2078.83C109.994 2052.66 116.758 2028.03 125.644 2003.96C134.551 1979.84 146.304 1957.02 161.768 1936.33C167.63 1928.49 173.865 1920.9 180.193 1913.43C190.11 1901.71 199.875 1889.82 210.406 1878.67C220.066 1868.45 230.644 1859.08 240.843 1849.37C243.007 1847.3 245.374 1845.45 247.482 1843.33C262.284 1828.49 278.754 1815.62 295.236 1802.75C301.62 1797.76 307.673 1792.35 313.926 1787.2C323.796 1779.06 333.502 1770.7 343.645 1762.92C363.603 1747.6 383.569 1732.28 403.999 1717.61C418.887 1706.92 434.238 1696.8 449.889 1687.26C484.88 1665.93 520.404 1645.48 555.295 1623.99C581.462 1607.87 607.251 1591.1 632.725 1573.91C671.983 1547.41 710.401 1519.71 748.216 1491.19C764.891 1478.61 781.611 1465.99 797.31 1452.25C815.931 1435.95 835.738 1421.1 854.023 1404.37C870.698 1389.11 887.49 1373.92 904.536 1359.08C927.499 1339.1 948.182 1316.89 969.942 1295.74C984.671 1281.42 999.246 1266.92 1013.34 1251.99C1027.1 1237.41 1040.19 1222.2 1053.53 1207.23C1060.64 1199.27 1067.41 1191.01 1074.79 1183.31C1089.89 1167.57 1102.96 1150.15 1116.54 1133.17C1126.92 1120.2 1136.63 1106.67 1146.6 1093.37C1174.03 1056.74 1200.06 1019.25 1219.21 977.418C1222.4 970.435 1229.38 955.288 1233.71 948.023C1234.3 950.534 1231.42 962.057 1230.78 964.915C1222.08 1003.79 1217.09 1043.21 1212.65 1082.76C1208.26 1121.86 1201.62 1160.66 1194.08 1199.27C1189.32 1223.63 1185.72 1248.15 1182.21 1272.7C1178.45 1298.94 1174.45 1325.14 1170.66 1351.38C1166.8 1378.04 1162.95 1404.71 1159.33 1431.4C1156 1455.98 1152.81 1480.58 1149.89 1505.21C1148.43 1517.5 1147.81 1529.9 1146.61 1542.24C1145.77 1550.73 1144.58 1559.19 1142.55 1568.47C1139.64 1568.25 1139.49 1573.59 1138.34 1575.05C1132.26 1582.71 1125.21 1586.08 1118.92 1593.58C1108.25 1606.31 1097.08 1618.65 1086.62 1631.55C1075.6 1645.15 1063.85 1658.07 1051.92 1670.83C1037.91 1685.81 1022.22 1698.96 1006.21 1711.78C988.223 1726.17 969.82 1739.93 950.726 1752.82C933.381 1764.53 915.881 1775.97 897.376 1785.75C880.038 1794.9 862.4 1803.43 844.419 1811.35C822.118 1821.18 799.284 1829.45 776.354 1837.52C762.686 1842.33 748.705 1846.24 734.878 1850.6C720.235 1855.21 705.619 1859.91 690.968 1864.5C682.02 1867.3 673.041 1870 664.053 1872.68C631.375 1882.4 598.501 1891.51 566.069 1901.99C543.363 1909.33 521.364 1918.83 498.853 1926.81C476.676 1934.67 455.304 1944.39 434.241 1954.68C404.29 1969.32 374.817 1984.93 345.233 2000.31C335.39 2005.42 325.731 2010.92 316.171 2016.55C300.736 2025.64 285.308 2034.77 270.146 2044.31C254.999 2053.84 239.893 2063.49 225.3 2073.84C208.633 2085.66 192.282 2097.97 176.347 2110.76C169.538 2116.22 161.682 2121.41 159.425 2130.95C147.832 2126.27 136.239 2121.58 123.943 2115.46C120.463 2112.88 120.236 2112.82 120.557 2112.82C120.557 2112.82 120.513 2112.84 120.463 2112.88Z" fill="url(#paint3_angular_460_788)"/>
<path d="M613.74 797.911C608.793 796.666 603.622 795.979 598.935 794.09C544.641 772.196 502.964 735.59 473.01 685.444C453.166 652.224 441.275 616.255 437.775 577.82C433.283 528.484 442.515 481.572 465.327 437.463C494.913 380.257 540.184 340.463 599.774 316.735C636.109 302.267 673.951 296.564 712.914 299.076C723.95 299.788 734.873 302.257 747.154 305.05C753.548 309.206 758.636 312.231 763.725 315.256C779.358 324.55 792.808 336.708 803.513 351.046C824.646 379.352 839.358 411.099 847.946 445.419C853.435 467.353 857.438 489.581 856.281 512.416C855.957 518.816 855.842 525.269 856.266 531.656C857.039 543.311 854.797 554.677 852.841 565.953C847.019 599.518 834.37 630.69 817.688 660.258C813.927 666.924 809.567 673.272 805.22 679.587C797.467 690.852 788.36 700.985 779.36 711.278C770.302 721.637 760.198 730.838 749.588 739.147C730.455 754.132 709.713 766.778 687.131 776.358C670.564 783.385 653.592 788.937 636.26 793.482C628.874 795.418 621.254 796.462 613.74 797.911Z" fill="url(#paint4_linear_460_788)"/>
<path d="M614.407 798.555C621.254 796.462 628.874 795.418 636.26 793.482C653.592 788.937 670.564 783.385 687.131 776.358C709.714 766.778 730.455 754.132 749.588 739.147C760.198 730.838 770.302 721.637 779.36 711.278C788.36 700.985 797.467 690.852 805.22 679.587C809.567 673.272 813.927 666.924 817.688 660.258C834.37 630.69 847.019 599.518 852.841 565.953C854.797 554.677 857.039 543.311 856.266 531.656C855.842 525.269 855.957 518.816 856.281 512.416C857.438 489.581 853.435 467.353 847.946 445.419C839.358 411.099 824.646 379.352 803.513 351.046C792.809 336.708 779.359 324.55 763.725 315.256C758.636 312.231 753.548 309.206 748.139 305.409C749.51 304.595 751.304 304.158 752.877 304.568C791.876 314.748 827.256 331.758 858.219 358.105C877.619 374.613 894.421 393.128 908.65 414.103C927.885 442.458 940.16 473.624 946.154 507.345C949.076 523.78 951.399 540.269 950.689 556.987C949.226 591.413 942.392 624.64 928.836 656.499C917.155 683.952 901.026 708.516 881.402 730.704C866.05 748.062 847.876 762.34 828.192 774.66C799.504 792.616 768.208 803.766 734.968 808.839C712.631 812.248 690.114 813.552 667.326 810.53C652.047 808.503 636.888 806.542 622.113 802.15C619.688 801.429 617.416 800.195 614.407 798.555Z" fill="url(#paint5_radial_460_788)"/>
<path d="M246.334 2141.36C247.482 2140.63 248.922 2140.31 250.689 2140.29C249.552 2140.97 248.089 2141.37 246.334 2141.36Z" fill="#F8C380"/>
<path d="M200.045 2141.03C201.273 2140.49 202.734 2140.38 204.485 2140.61C203.276 2141.12 201.776 2141.3 200.045 2141.03Z" fill="#F8C380"/>
<path d="M269.199 2138.72C269.808 2138.11 270.571 2137.84 271.506 2137.85C270.903 2138.44 270.127 2138.76 269.199 2138.72Z" fill="#F8C380"/>
<path d="M305.178 2133.59C305.871 2132.95 306.656 2132.65 307.799 2132.61C307.195 2133.21 306.232 2133.56 305.178 2133.59Z" fill="#F8C380"/>
<path d="M665.498 949.253C665.657 949.818 665.073 950.342 663.815 950.94C663.465 950.247 664.002 949.646 665.498 949.253Z" fill="#21999D"/>
<path d="M396.251 2114.75C287.716 2169.98 175.384 2141.28 155.097 2129.2C224.288 2048.82 365.784 1975.35 425.472 1951.92C536.178 1896.98 775.798 1804.96 873.285 1777.19C952.086 1775.28 1143.16 1563.02 1143.16 1563.34C1143.16 1563.67 1133.28 1747.62 1135.31 1836.01C1110.06 2107.23 863.146 2183.47 744.656 2124.06C626.167 2064.65 504.787 2059.51 396.251 2114.75Z" fill="url(#paint6_linear_460_788)" stroke="white" stroke-width="0.5"/>
<path d="M2858.09 866.909L2460.27 1984H2169.36L1771.55 866.909H2052.27L2309 1696.73H2320.64L2578.09 866.909H2858.09ZM3329.73 2006.55C3258.94 2006.55 3195.18 1993.94 3138.45 1968.73C3082.21 1943.03 3037.61 1905.21 3004.64 1855.27C2972.15 1805.33 2955.91 1743.76 2955.91 1670.55C2955.91 1607.52 2967.55 1555.39 2990.82 1514.18C3014.09 1472.97 3045.85 1440 3086.09 1415.27C3126.33 1390.55 3171.67 1371.88 3222.09 1359.27C3273 1346.18 3325.61 1336.73 3379.91 1330.91C3445.36 1324.12 3498.45 1318.06 3539.18 1312.73C3579.91 1306.91 3609.48 1298.18 3627.91 1286.55C3646.82 1274.42 3656.27 1255.76 3656.27 1230.55V1226.18C3656.27 1171.39 3640.03 1128.97 3607.55 1098.91C3575.06 1068.85 3528.27 1053.82 3467.18 1053.82C3402.7 1053.82 3351.55 1067.88 3313.73 1096C3276.39 1124.12 3251.18 1157.33 3238.09 1195.64L2992.27 1160.73C3011.67 1092.85 3043.67 1036.12 3088.27 990.545C3132.88 944.485 3187.42 910.061 3251.91 887.273C3316.39 864 3387.67 852.364 3465.73 852.364C3519.55 852.364 3573.12 858.667 3626.45 871.273C3679.79 883.879 3728.52 904.727 3772.64 933.818C3816.76 962.424 3852.15 1001.45 3878.82 1050.91C3905.97 1100.36 3919.55 1162.18 3919.55 1236.36V1984H3666.45V1830.55H3657.73C3641.73 1861.58 3619.18 1890.67 3590.09 1917.82C3561.48 1944.48 3525.36 1966.06 3481.73 1982.55C3438.58 1998.55 3387.91 2006.55 3329.73 2006.55ZM3398.09 1813.09C3450.94 1813.09 3496.76 1802.67 3535.55 1781.82C3574.33 1760.48 3604.15 1732.36 3625 1697.45C3646.33 1662.55 3657 1624.48 3657 1583.27V1451.64C3648.76 1458.42 3634.7 1464.73 3614.82 1470.55C3595.42 1476.36 3573.61 1481.45 3549.36 1485.82C3525.12 1490.18 3501.12 1494.06 3477.36 1497.45C3453.61 1500.85 3433 1503.76 3415.55 1506.18C3376.27 1511.52 3341.12 1520.24 3310.09 1532.36C3279.06 1544.48 3254.58 1561.45 3236.64 1583.27C3218.7 1604.61 3209.73 1632.24 3209.73 1666.18C3209.73 1714.67 3227.42 1751.27 3262.82 1776C3298.21 1800.73 3343.3 1813.09 3398.09 1813.09ZM4447.55 494.545V1984H4184.27V494.545H4447.55ZM5430.27 1514.18V866.909H5693.55V1984H5438.27V1785.45H5426.64C5401.42 1848 5359.97 1899.15 5302.27 1938.91C5245.06 1978.67 5174.52 1998.55 5090.64 1998.55C5017.42 1998.55 4952.7 1982.3 4896.45 1949.82C4840.7 1916.85 4797.06 1869.09 4765.55 1806.55C4734.03 1743.52 4718.27 1667.39 4718.27 1578.18V866.909H4981.55V1537.45C4981.55 1608.24 5000.94 1664.48 5039.73 1706.18C5078.52 1747.88 5129.42 1768.73 5192.45 1768.73C5231.24 1768.73 5268.82 1759.27 5305.18 1740.36C5341.55 1721.45 5371.36 1693.33 5394.64 1656C5418.39 1618.18 5430.27 1570.91 5430.27 1514.18ZM6458.82 2005.82C6346.82 2005.82 6250.09 1982.55 6168.64 1936C6087.67 1888.97 6025.36 1822.55 5981.73 1736.73C5938.09 1650.42 5916.27 1548.85 5916.27 1432C5916.27 1317.09 5938.09 1216.24 5981.73 1129.45C6025.85 1042.18 6087.42 974.303 6166.45 925.818C6245.48 876.848 6338.33 852.364 6445 852.364C6513.85 852.364 6578.82 863.515 6639.91 885.818C6701.48 907.636 6755.79 941.576 6802.82 987.636C6850.33 1033.7 6887.67 1092.36 6914.82 1163.64C6941.97 1234.42 6955.55 1318.79 6955.55 1416.73V1497.45H6039.91V1320H6703.18C6702.7 1269.58 6691.79 1224.73 6670.45 1185.45C6649.12 1145.7 6619.3 1114.42 6581 1091.64C6543.18 1068.85 6499.06 1057.45 6448.64 1057.45C6394.82 1057.45 6347.55 1070.55 6306.82 1096.73C6266.09 1122.42 6234.33 1156.36 6211.55 1198.55C6189.24 1240.24 6177.85 1286.06 6177.36 1336V1490.91C6177.36 1555.88 6189.24 1611.64 6213 1658.18C6236.76 1704.24 6269.97 1739.64 6312.64 1764.36C6355.3 1788.61 6405.24 1800.73 6462.45 1800.73C6500.76 1800.73 6535.42 1795.39 6566.45 1784.73C6597.48 1773.58 6624.39 1757.33 6647.18 1736C6669.97 1714.67 6687.18 1688.24 6698.82 1656.73L6944.64 1684.36C6929.12 1749.33 6899.55 1806.06 6855.91 1854.55C6812.76 1902.55 6757.48 1939.88 6690.09 1966.55C6622.7 1992.73 6545.61 2005.82 6458.82 2005.82ZM8061.18 1162.18L7821.18 1188.36C7814.39 1164.12 7802.52 1141.33 7785.55 1120C7769.06 1098.67 7746.76 1081.45 7718.64 1068.36C7690.52 1055.27 7656.09 1048.73 7615.36 1048.73C7560.58 1048.73 7514.52 1060.61 7477.18 1084.36C7440.33 1108.12 7422.15 1138.91 7422.64 1176.73C7422.15 1209.21 7434.03 1235.64 7458.27 1256C7483 1276.36 7523.73 1293.09 7580.45 1306.18L7771 1346.91C7876.7 1369.7 7955.24 1405.82 8006.64 1455.27C8058.52 1504.73 8084.7 1569.45 8085.18 1649.45C8084.7 1719.76 8064.09 1781.82 8023.36 1835.64C7983.12 1888.97 7927.12 1930.67 7855.36 1960.73C7783.61 1990.79 7701.18 2005.82 7608.09 2005.82C7471.36 2005.82 7361.3 1977.21 7277.91 1920C7194.52 1862.3 7144.82 1782.06 7128.82 1679.27L7385.55 1654.55C7397.18 1704.97 7421.91 1743.03 7459.73 1768.73C7497.55 1794.42 7546.76 1807.27 7607.36 1807.27C7669.91 1807.27 7720.09 1794.42 7757.91 1768.73C7796.21 1743.03 7815.36 1711.27 7815.36 1673.45C7815.36 1641.45 7803 1615.03 7778.27 1594.18C7754.03 1573.33 7716.21 1557.33 7664.82 1546.18L7474.27 1506.18C7367.12 1483.88 7287.85 1446.3 7236.45 1393.45C7185.06 1340.12 7159.61 1272.73 7160.09 1191.27C7159.61 1122.42 7178.27 1062.79 7216.09 1012.36C7254.39 961.455 7307.48 922.182 7375.36 894.545C7443.73 866.424 7522.52 852.364 7611.73 852.364C7742.64 852.364 7845.67 880.242 7920.82 936C7996.45 991.758 8043.24 1067.15 8061.18 1162.18ZM8868.09 866.909V1070.55H8207.73V866.909H8868.09ZM8372.82 1984V761.454C8372.82 686.303 8388.33 623.757 8419.36 573.818C8450.88 523.879 8493.06 486.545 8545.91 461.818C8598.76 437.091 8657.42 424.727 8721.91 424.727C8767.48 424.727 8807.97 428.364 8843.36 435.636C8878.76 442.909 8904.94 449.455 8921.91 455.273L8869.55 658.909C8858.39 655.515 8844.33 652.121 8827.36 648.727C8810.39 644.848 8791.48 642.909 8770.64 642.909C8721.67 642.909 8687 654.788 8666.64 678.545C8646.76 701.818 8636.82 735.273 8636.82 778.909V1984H8372.82ZM9074.27 1984V866.909H9337.55V1984H9074.27ZM9206.64 708.364C9164.94 708.364 9129.06 694.545 9099 666.909C9068.94 638.788 9053.91 605.091 9053.91 565.818C9053.91 526.061 9068.94 492.364 9099 464.727C9129.06 436.606 9164.94 422.545 9206.64 422.545C9248.82 422.545 9284.7 436.606 9314.27 464.727C9344.33 492.364 9359.36 526.061 9359.36 565.818C9359.36 605.091 9344.33 638.788 9314.27 666.909C9284.7 694.545 9248.82 708.364 9206.64 708.364ZM9608.27 1984V866.909H9863.55V1053.09H9875.18C9895.55 988.606 9930.45 938.909 9979.91 904C10029.8 868.606 10086.8 850.909 10150.8 850.909C10165.4 850.909 10181.6 851.636 10199.5 853.091C10218 854.061 10233.2 855.758 10245.4 858.182V1100.36C10234.2 1096.48 10216.5 1093.09 10192.3 1090.18C10168.5 1086.79 10145.5 1085.09 10123.2 1085.09C10075.2 1085.09 10032 1095.52 9993.73 1116.36C9955.91 1136.73 9926.09 1165.09 9904.27 1201.45C9882.45 1237.82 9871.55 1279.76 9871.55 1327.27V1984H9608.27ZM11303.2 1162.18L11063.2 1188.36C11056.4 1164.12 11044.5 1141.33 11027.5 1120C11011.1 1098.67 10988.8 1081.45 10960.6 1068.36C10932.5 1055.27 10898.1 1048.73 10857.4 1048.73C10802.6 1048.73 10756.5 1060.61 10719.2 1084.36C10682.3 1108.12 10664.2 1138.91 10664.6 1176.73C10664.2 1209.21 10676 1235.64 10700.3 1256C10725 1276.36 10765.7 1293.09 10822.5 1306.18L11013 1346.91C11118.7 1369.7 11197.2 1405.82 11248.6 1455.27C11300.5 1504.73 11326.7 1569.45 11327.2 1649.45C11326.7 1719.76 11306.1 1781.82 11265.4 1835.64C11225.1 1888.97 11169.1 1930.67 11097.4 1960.73C11025.6 1990.79 10943.2 2005.82 10850.1 2005.82C10713.4 2005.82 10603.3 1977.21 10519.9 1920C10436.5 1862.3 10386.8 1782.06 10370.8 1679.27L10627.5 1654.55C10639.2 1704.97 10663.9 1743.03 10701.7 1768.73C10739.5 1794.42 10788.8 1807.27 10849.4 1807.27C10911.9 1807.27 10962.1 1794.42 10999.9 1768.73C11038.2 1743.03 11057.4 1711.27 11057.4 1673.45C11057.4 1641.45 11045 1615.03 11020.3 1594.18C10996 1573.33 10958.2 1557.33 10906.8 1546.18L10716.3 1506.18C10609.1 1483.88 10529.8 1446.3 10478.5 1393.45C10427.1 1340.12 10401.6 1272.73 10402.1 1191.27C10401.6 1122.42 10420.3 1062.79 10458.1 1012.36C10496.4 961.455 10549.5 922.182 10617.4 894.545C10685.7 866.424 10764.5 852.364 10853.7 852.364C10984.6 852.364 11087.7 880.242 11162.8 936C11238.5 991.758 11285.2 1067.15 11303.2 1162.18ZM12102.1 866.909V1070.55H11459.9V866.909H12102.1ZM11618.5 599.273H11881.7V1648C11881.7 1683.39 11887.1 1710.55 11897.7 1729.45C11908.9 1747.88 11923.4 1760.48 11941.4 1767.27C11959.3 1774.06 11979.2 1777.45 12001 1777.45C12017.5 1777.45 12032.5 1776.24 12046.1 1773.82C12060.2 1771.39 12070.8 1769.21 12078.1 1767.27L12122.5 1973.09C12108.4 1977.94 12088.3 1983.27 12062.1 1989.09C12036.4 1994.91 12004.9 1998.3 11967.5 1999.27C11901.6 2001.21 11842.2 1991.27 11789.4 1969.45C11736.5 1947.15 11694.6 1912.73 11663.5 1866.18C11633 1819.64 11618 1761.45 11618.5 1691.64V599.273ZM12484.5 2000C12440.3 2000 12402.5 1984.48 12371 1953.45C12339.5 1922.42 12324 1884.61 12324.5 1840C12324 1796.36 12339.5 1759.03 12371 1728C12402.5 1696.97 12440.3 1681.45 12484.5 1681.45C12527.1 1681.45 12564.2 1696.97 12595.7 1728C12627.7 1759.03 12644 1796.36 12644.5 1840C12644 1869.58 12636.2 1896.48 12621.2 1920.73C12606.6 1944.97 12587.2 1964.36 12563 1978.91C12539.2 1992.97 12513.1 2000 12484.5 2000ZM13237.7 2006.55C13166.9 2006.55 13103.2 1993.94 13046.5 1968.73C12990.2 1943.03 12945.6 1905.21 12912.6 1855.27C12880.2 1805.33 12863.9 1743.76 12863.9 1670.55C12863.9 1607.52 12875.5 1555.39 12898.8 1514.18C12922.1 1472.97 12953.8 1440 12994.1 1415.27C13034.3 1390.55 13079.7 1371.88 13130.1 1359.27C13181 1346.18 13233.6 1336.73 13287.9 1330.91C13353.4 1324.12 13406.5 1318.06 13447.2 1312.73C13487.9 1306.91 13517.5 1298.18 13535.9 1286.55C13554.8 1274.42 13564.3 1255.76 13564.3 1230.55V1226.18C13564.3 1171.39 13548 1128.97 13515.5 1098.91C13483.1 1068.85 13436.3 1053.82 13375.2 1053.82C13310.7 1053.82 13259.5 1067.88 13221.7 1096C13184.4 1124.12 13159.2 1157.33 13146.1 1195.64L12900.3 1160.73C12919.7 1092.85 12951.7 1036.12 12996.3 990.545C13040.9 944.485 13095.4 910.061 13159.9 887.273C13224.4 864 13295.7 852.364 13373.7 852.364C13427.5 852.364 13481.1 858.667 13534.5 871.273C13587.8 883.879 13636.5 904.727 13680.6 933.818C13724.8 962.424 13760.2 1001.45 13786.8 1050.91C13814 1100.36 13827.5 1162.18 13827.5 1236.36V1984H13574.5V1830.55H13565.7C13549.7 1861.58 13527.2 1890.67 13498.1 1917.82C13469.5 1944.48 13433.4 1966.06 13389.7 1982.55C13346.6 1998.55 13295.9 2006.55 13237.7 2006.55ZM13306.1 1813.09C13358.9 1813.09 13404.8 1802.67 13443.5 1781.82C13482.3 1760.48 13512.2 1732.36 13533 1697.45C13554.3 1662.55 13565 1624.48 13565 1583.27V1451.64C13556.8 1458.42 13542.7 1464.73 13522.8 1470.55C13503.4 1476.36 13481.6 1481.45 13457.4 1485.82C13433.1 1490.18 13409.1 1494.06 13385.4 1497.45C13361.6 1500.85 13341 1503.76 13323.5 1506.18C13284.3 1511.52 13249.1 1520.24 13218.1 1532.36C13187.1 1544.48 13162.6 1561.45 13144.6 1583.27C13126.7 1604.61 13117.7 1632.24 13117.7 1666.18C13117.7 1714.67 13135.4 1751.27 13170.8 1776C13206.2 1800.73 13251.3 1813.09 13306.1 1813.09ZM14092.3 1984V866.909H14355.5V1984H14092.3ZM14224.6 708.364C14182.9 708.364 14147.1 694.545 14117 666.909C14086.9 638.788 14071.9 605.091 14071.9 565.818C14071.9 526.061 14086.9 492.364 14117 464.727C14147.1 436.606 14182.9 422.545 14224.6 422.545C14266.8 422.545 14302.7 436.606 14332.3 464.727C14362.3 492.364 14377.4 526.061 14377.4 565.818C14377.4 605.091 14362.3 638.788 14332.3 666.909C14302.7 694.545 14266.8 708.364 14224.6 708.364Z" fill="white"/>
</g>
<defs>
<linearGradient id="paint0_linear_460_788" x1="331.387" y1="951.082" x2="331.387" y2="1295.35" gradientUnits="userSpaceOnUse">
<stop stop-color="white"/>
<stop offset="0.99" stop-color="#DAD7D7"/>
</linearGradient>
<linearGradient id="paint1_linear_460_788" x1="0.922607" y1="1246.74" x2="662.452" y2="1246.74" gradientUnits="userSpaceOnUse">
<stop offset="0.46" stop-color="white"/>
<stop offset="0.94" stop-color="#DAD7D7"/>
</linearGradient>
<linearGradient id="paint2_linear_460_788" x1="809.896" y1="0" x2="809.896" y2="2113.09" gradientUnits="userSpaceOnUse">
<stop offset="0.49" stop-color="white"/>
<stop offset="1" stop-color="#DAD7D7"/>
</linearGradient>
<radialGradient id="paint3_angular_460_788" cx="0" cy="0" r="1" gradientUnits="userSpaceOnUse" gradientTransform="translate(671.209 1541.26) rotate(90) scale(591.463 561.475)">
<stop offset="0.34" stop-color="#DAD7D7"/>
<stop offset="0.41" stop-color="#EAE8E8"/>
<stop offset="0.605" stop-color="white"/>
</radialGradient>
<linearGradient id="paint4_linear_460_788" x1="646.576" y1="298.502" x2="646.576" y2="797.911" gradientUnits="userSpaceOnUse">
<stop offset="0.9999" stop-color="white"/>
<stop offset="1" stop-color="#DAD7D7"/>
</linearGradient>
<radialGradient id="paint5_radial_460_788" cx="0" cy="0" r="1" gradientUnits="userSpaceOnUse" gradientTransform="translate(782.612 558.318) rotate(90) scale(253.906 168.206)">
<stop offset="0.43" stop-color="white"/>
<stop offset="1" stop-color="#F2F2F2"/>
</radialGradient>
<linearGradient id="paint6_linear_460_788" x1="649.126" y1="1563.34" x2="649.126" y2="2147.49" gradientUnits="userSpaceOnUse">
<stop offset="0.37" stop-color="white"/>
<stop offset="1" stop-color="#DAD7D7"/>
</linearGradient>
<clipPath id="clip0_460_788">
<rect width="15883" height="2161" fill="white"/>
</clipPath>
</defs>
</svg>
